<svg xmlns="http://www.w3.org/2000/svg" viewBox="0 0 116.4 23.61"><defs><style>.cls-1{fill:#003a70;}.cls-2{fill:#80bc00;}.cls-3{fill:#487629;}.cls-4{fill:#00b2e3;}.cls-5{fill:#236092;}.cls-6{fill:#4c9c2e;}.cls-7{fill:#1a5632;}</style></defs><title>logo</title><g id="Layer_2" data-name="Layer 2"><g id="header"><path class="cls-1" d="M8,16.55a7.92,7.92,0,0,1-2,4.57.41.41,0,0,0,0,.58c.08.09,1.23,1.24,1.79,1.79a.4.4,0,0,0,.57,0,11.35,11.35,0,0,0,3-7.75A11.4,11.4,0,0,0,11,12.69a11.72,11.72,0,0,1-2.27,3.22A8.57,8.57,0,0,1,8,16.55Z"/><path class="cls-1" d="M6.91,11.64c.14.24.27.49.39.74A7.15,7.15,0,0,0,8,11.17,10,10,0,0,1,6.91,11.64Z"/><path class="cls-1" d="M.41,4.38a.4.4,0,0,0-.41.4V7.31a.41.41,0,0,0,.41.41A8,8,0,0,1,4.22,8.91a7.94,7.94,0,0,0,3.52-1.5A11.31,11.31,0,0,0,.41,4.38Z"/><path class="cls-2" d="M10.78,2.69A11.7,11.7,0,0,0,9,.12a.41.41,0,0,0-.58,0L6.62,1.91a.4.4,0,0,0,0,.57,8.07,8.07,0,0,1,2,4.2v0A8,8,0,0,0,10.78,2.69Z"/><path class="cls-2" d="M7.3,12.38a7.63,7.63,0,0,1-1,1.17,8.2,8.2,0,0,1-3.71,2.12.39.39,0,0,0-.32.47c0,.18.34,1.72.49,2.48a.41.41,0,0,0,.48.32l.26-.07A11.12,11.12,0,0,0,8,16.55a7.2,7.2,0,0,0,0-.81A8,8,0,0,0,7.3,12.38Z"/><path class="cls-2" d="M12,7.81A11,11,0,0,1,11,9a10.88,10.88,0,0,1-1.14,1A11.71,11.71,0,0,1,11,12.69,11.46,11.46,0,0,0,12,7.87Z"/><path class="cls-3" d="M8,11.17a7.15,7.15,0,0,1-.67,1.21A8,8,0,0,1,8,15.74a7.2,7.2,0,0,1,0,.81,8.57,8.57,0,0,0,.7-.64A11.72,11.72,0,0,0,11,12.69,11.71,11.71,0,0,0,9.83,10,11.09,11.09,0,0,1,8,11.17Z"/><path class="cls-4" d="M14.3,1.39A.41.41,0,0,0,13.89,1H11.37a.41.41,0,0,0-.41.41,9.25,9.25,0,0,1-.18,1.3A11.4,11.4,0,0,1,12,7.81,11.3,11.3,0,0,0,14.3,1.39Z"/><path class="cls-4" d="M8.67,8.38c0-.17,0-.34,0-.51A9.39,9.39,0,0,0,8.6,6.68a8.51,8.51,0,0,1-.86.73L8,7.7C8.26,7.92,8.47,8.15,8.67,8.38Z"/><path class="cls-5" d="M8.67,8.38c-.2-.23-.41-.46-.63-.68l-.3-.29a7.94,7.94,0,0,1-3.52,1.5,8.6,8.6,0,0,1,1.46,1.15,8.59,8.59,0,0,1,1.23,1.58A10,10,0,0,0,8,11.17,8.19,8.19,0,0,0,8.67,8.38Z"/><path class="cls-6" d="M8.67,8.38A11.83,11.83,0,0,1,9.83,10,10.88,10.88,0,0,0,11,9a11,11,0,0,0,1-1.21,11.4,11.4,0,0,0-1.24-5.12,8,8,0,0,1-2.17,4v0a9.39,9.39,0,0,1,.08,1.19C8.68,8,8.68,8.21,8.67,8.38Z"/><path class="cls-7" d="M8,11.17A11.09,11.09,0,0,0,9.83,10,11.83,11.83,0,0,0,8.67,8.38,8.19,8.19,0,0,1,8,11.17Z"/><path class="cls-4" d="M4.22,8.91A7.75,7.75,0,0,1,2.93,9a9.3,9.3,0,0,1-1.16-.08.4.4,0,0,0-.48.31L.81,11.72a.39.39,0,0,0,.31.48,10.87,10.87,0,0,0,1.81.15,11.42,11.42,0,0,0,4-.71,8.59,8.59,0,0,0-1.23-1.58A8.6,8.6,0,0,0,4.22,8.91Z"/><path class="cls-1" d="M37.83,12v5h2v-5c0-2-.66-3.16-2.84-3.16a2.4,2.4,0,0,0-2.11,1.28l-.31-1H32.73a11.67,11.67,0,0,1,.21,1.68V17h1.94V11.88c.37-.74.92-1.47,1.73-1.47C37.76,10.41,37.83,11.2,37.83,12Z"/><path class="cls-1" d="M43,17a4.61,4.61,0,0,0,1.7.3,12.79,12.79,0,0,0,2.21-.34l-.65-1.57a3.13,3.13,0,0,1-2.34.26c-1.09-.47-1.12-2-1.12-2.46A3.93,3.93,0,0,1,43.27,11a1.68,1.68,0,0,1,1.46-.6,4.05,4.05,0,0,1,1.52.43l.6-1.56a10.39,10.39,0,0,0-2.1-.37,4.68,4.68,0,0,0-1.75.3,3.45,3.45,0,0,0-2,2.19,6.17,6.17,0,0,0,0,3.39A3.4,3.4,0,0,0,43,17Z"/><path class="cls-1" d="M51.08,17.26c2.82,0,3.87-2,3.87-4.22s-1-4.14-3.87-4.14-3.9,1.95-3.9,4.14S48.23,17.26,51.08,17.26Zm0-6.85c1.31,0,1.88.7,1.88,2.63s-.68,2.73-1.88,2.73-1.9-.95-1.9-2.73S49.83,10.41,51.08,10.41Z"/><path class="cls-1" d="M31.68,17q0-.33-.09-.66c0-.22-.07-.43-.1-.64s-.06-.41-.08-.6a4.63,4.63,0,0,1,0-.51V11.43a2.6,2.6,0,0,0-.23-1.12C31,10,30.44,8.92,28.4,8.92a12.85,12.85,0,0,0-2.82.33l.45,1.6c1.88-.63,2.67-.42,2.86-.32.5.25.52.7.52,1.29h-.65a5,5,0,0,0-3.31,1,2.62,2.62,0,0,0,.81,4,3,3,0,0,0,3.29-.61l.29.79Zm-2.25-2.08a2.2,2.2,0,0,1-1.57.75c-.77,0-1.35-.34-1.42-1-.11-1.07,1-1.39,1.36-1.45a6.82,6.82,0,0,1,1.2-.1h.43Z"/><path class="cls-1" d="M17.8,17l.3-.79a3.18,3.18,0,0,0,2.26.85,3.19,3.19,0,0,0,3.44-3.2,2.79,2.79,0,0,0-2.18-2.7,2.53,2.53,0,0,0,1.52-2.42c0-2-1.76-2.89-3.55-2.89H16.27v8.74a4.77,4.77,0,0,1,0,.51c0,.19-.25,1.68-.28,1.9Zm1.48-1.74a2,2,0,0,1-.43-.17,3.19,3.19,0,0,1-.63-.51V12.23h1.53c1.23,0,2.1.6,2.1,1.55a1.63,1.63,0,0,1-2.05,1.63A2.07,2.07,0,0,1,19.28,15.28ZM18.21,7.54h.87c1.21,0,2.28.18,2.28,1.42s-1.28,1.49-2,1.49H18.21Z"/><polygon class="cls-1" points="66.13 7.55 66.66 5.86 60.23 5.86 60.23 17.02 62.21 17.02 62.21 12.14 65.4 12.14 65.4 10.48 62.21 10.48 62.21 7.55 66.13 7.55"/><path class="cls-1" d="M70.07,8.9c-2.83,0-3.9,1.95-3.9,4.14s1.06,4.22,3.9,4.22S74,15.29,74,13,72.93,8.9,70.07,8.9Zm0,6.86c-1.31,0-1.9-.95-1.9-2.72,0-1.94.66-2.64,1.9-2.64S72,11.1,72,13,71.28,15.76,70.07,15.76Z"/><path class="cls-1" d="M76.78,10.48l-.31-1.34H74.68a10.81,10.81,0,0,1,.21,1.76V17h1.94V13c0-1.64.69-2.56,1.61-2.56a2.06,2.06,0,0,1,1.14.48l.66-1.6a2.87,2.87,0,0,0-1.5-.38A2.07,2.07,0,0,0,76.78,10.48Z"/><path class="cls-1" d="M90.14,8.9a2.75,2.75,0,0,0-2.41,1.27A2.58,2.58,0,0,0,85.21,8.9a2.76,2.76,0,0,0-2.09,1.29l-.31-1H81c0,.59.21,1.15.21,1.81V17h2V11.86c.22-.48.86-1.46,1.67-1.46s1.21.31,1.21,1.62v5H88V12a2.12,2.12,0,0,1,1.85-1.56c.79,0,1.12.45,1.12,1.62v5h2V12C92.92,9.88,92,8.9,90.14,8.9Z"/><path class="cls-1" d="M97.76,8.9c-2.83,0-3.9,1.95-3.9,4.14s1,4.22,3.9,4.22,3.88-2,3.88-4.22S100.62,8.9,97.76,8.9Zm0,6.86c-1.31,0-1.9-.95-1.9-2.72,0-1.94.66-2.64,1.9-2.64s1.87.7,1.87,2.64S99,15.76,97.76,15.76Z"/><path class="cls-1" d="M106,12.16c-.81-.25-1.47-.45-1.47-1s.48-.79,1.36-.79a3.88,3.88,0,0,1,1.61.41l.66-1.54a7.76,7.76,0,0,0-2.28-.37c-1.6,0-3.35.45-3.35,2.34s1.5,2.33,2.73,2.69c.82.24,1.53.45,1.53,1s-.15.88-1.36.88a6.3,6.3,0,0,1-2.38-.66l-.67,1.61a10,10,0,0,0,3,.55c1.68,0,3.4-.55,3.4-2.4S107.25,12.53,106,12.16Z"/><path class="cls-1" d="M116.4,17l-.09-.66c0-.21-.07-.43-.1-.64s-.07-.4-.09-.59a4.92,4.92,0,0,1,0-.51V11.44a2.57,2.57,0,0,0-.22-1.12c-.15-.34-.72-1.4-2.76-1.4a12.33,12.33,0,0,0-2.81.34l.45,1.59c1.87-.62,2.67-.41,2.85-.31.51.24.52.69.52,1.29h-.65a5,5,0,0,0-3.3.95,2.61,2.61,0,0,0,.8,4,3,3,0,0,0,3.3-.6l.29.78Zm-2.24-2.08a2.2,2.2,0,0,1-1.57.75c-.77,0-1.35-.34-1.42-1-.11-1.07,1-1.39,1.37-1.45a5.74,5.74,0,0,1,1.19-.1h.43Z"/></g></g></svg>