<?xml version="1.0" encoding="utf-8"?>
<!-- Generator: Adobe Illustrator 27.9.0, SVG Export Plug-In . SVG Version: 6.00 Build 0)  -->
<svg version="1.1" id="Layer_1" xmlns="http://www.w3.org/2000/svg" xmlns:xlink="http://www.w3.org/1999/xlink" x="0px" y="0px"
	 viewBox="0 0 450 115.2" style="enable-background:new 0 0 450 115.2;" xml:space="preserve">
<style type="text/css">
	.st0{fill:#E70033;}
	.st1{fill:#002C76;}
	.st2{fill:#FFFFFF;}
</style>
<g id="layer1">
	<path id="path33" class="st0" d="M450,0H121.8c0,0.1-0.1,0.1-0.1,0.2C108.8,16.1,101,36.3,101,58.4c0,21.4,7.3,41,19.4,56.7H450V0z
		"/>
	<path id="path37" class="st1" d="M108.5,0.7c0.1-0.2,0.3-0.5,0.4-0.7H0v115.1h107.8c-10.8-16.3-17-35.7-17-56.7
		C90.8,37,97.3,17.2,108.5,0.7"/>
	<path id="path41" class="st2" d="M30.1,38.6c0,8.6-2.3,16.8-6.7,24.1h47.4c0.3-2.1,0.5-4.3,0.5-6.4c0-7.3-2-14.4-5.8-20.6l-35.5,0
		C30,36.6,30.1,37.6,30.1,38.6 M41.5,89.3c3.8,0,7.1-2.4,8.4-6c1.2-3.4,4.4-5.7,8.1-5.7c2.5,0,4.9,1.1,6.6,3.1
		c0.3,0.4,0.7,0.9,0.9,1.4c2.6-2.1,4.7-4.5,6.5-7.2l-53,0c4.7,7.5,12.5,12.9,21.4,14.4h0l0.1,0c0,0,0,0-0.1,0
		C40.7,89.3,41.1,89.3,41.5,89.3 M39.8,92.9c-12.2-2-22.4-10.4-26.8-21.7h32.8v-4.8H16.2c6.4-7.6,10.2-17.1,10.2-27.7
		c0-2.3-0.2-4.5-0.5-6.7l41.7,0c4.7,6.9,7.4,15.3,7.4,24.3c0,3.4-0.4,6.9-1.1,10.1H50.2v4.8H78c-2.8,7.3-8,13-14.6,17
		c0,0.1,0,0.2,0,0c0-1.6-0.5-3.8-1.5-5c-0.9-1.1-2.3-1.8-3.8-1.8c-2.1,0-3.9,1.4-4.6,3.2C51.7,89.5,47,93,41.5,93
		C40.9,93,40.4,93,39.8,92.9"/>
	<path id="path45" class="st2" d="M42.9,28.8c-1.4,0-6.1-1-7.4-3c2.1,1.2,6.7-0.2,8-0.9c0.8-0.4,3.6-3.4,6.7-2.6v7.4
		C47.8,27.6,43.8,28.8,42.9,28.8"/>
	<path id="path49" class="st2" d="M44.4,57c1.4-1.6,2.2-3.2,2.2-4.4c0-0.5-0.1-0.9-0.4-1.1c-0.9-0.9-3.2-0.2-5.4,1.6v-7.6
		c2.2,1.9,4.6,2.7,5.5,1.7c0.3-0.3,0.4-0.7,0.4-1.1c0-1.1-0.7-2.7-2-4.2h7.7c-1.4,1.6-2.1,3.2-2.2,4.4c0,0.5,0.1,0.9,0.4,1.1
		c0.9,0.9,3.2,0.2,5.3-1.6v7.7c-2.2-1.9-4.6-2.7-5.5-1.8c-0.3,0.3-0.4,0.6-0.4,1.1c0,1.1,0.8,2.7,2,4.2L44.4,57z"/>
	<path id="path53" class="st2" d="M238.9,28.3V11.5h2.7c1.5,0,2.7,0.1,3.4,0.3c1,0.3,1.8,0.8,2.4,1.5c0.6,0.7,0.9,1.6,0.9,2.6
		c0,0.6-0.1,1.2-0.4,1.7c-0.3,0.5-0.7,1-1.3,1.5c1,0.5,1.8,1.1,2.2,1.8c0.5,0.7,0.7,1.6,0.7,2.6c0,1-0.2,1.8-0.7,2.6
		c-0.5,0.8-1.1,1.4-1.9,1.8c-0.8,0.4-1.9,0.6-3.2,0.6L238.9,28.3z M242,14.6v3.5h0.7c0.8,0,1.4-0.2,1.8-0.5c0.4-0.3,0.6-0.8,0.6-1.3
		c0-0.5-0.2-0.9-0.6-1.2c-0.4-0.3-0.9-0.5-1.7-0.5L242,14.6L242,14.6z M242,20.9v4.3h0.8c1.4,0,2.3-0.2,2.7-0.5
		c0.5-0.3,0.7-0.8,0.7-1.5c0-0.7-0.3-1.3-0.8-1.7c-0.6-0.4-1.5-0.6-2.8-0.6H242z"/>
	<path id="path57" class="st2" d="M256.8,11.5h3.2l6.5,16.8h-3.3l-1.3-3.5H255l-1.4,3.5h-3.3L256.8,11.5z M258.4,16l-2.3,5.8h4.6
		L258.4,16z"/>
	<path id="path61" class="st2" d="M268.8,11.5h3l6.3,10.5V11.5h3.2v16.8h-3L272,17.8v10.5h-3.2V11.5z"/>
	<path id="path65" class="st2" d="M299.9,14.4l-2.2,2.1c-1.5-1.6-3.2-2.4-5.1-2.4c-1.6,0-3,0.5-4,1.6c-1.1,1.1-1.6,2.4-1.6,4.1
		c0,1.1,0.2,2.1,0.7,3c0.5,0.9,1.2,1.5,2.1,2c0.9,0.5,1.9,0.7,3,0.7c0.9,0,1.8-0.2,2.5-0.5c0.8-0.3,1.6-1,2.5-1.9l2.2,2.3
		c-1.2,1.2-2.4,2.1-3.5,2.5c-1.1,0.5-2.4,0.7-3.8,0.7c-2.6,0-4.7-0.8-6.4-2.5c-1.7-1.7-2.5-3.8-2.5-6.4c0-1.7,0.4-3.2,1.1-4.5
		c0.8-1.3,1.8-2.3,3.2-3.1c1.4-0.8,2.9-1.2,4.6-1.2c1.4,0,2.7,0.3,4,0.9C297.9,12.5,299,13.4,299.9,14.4"/>
	<path id="path69" class="st2" d="M310.4,11.1c2.4,0,4.4,0.9,6.1,2.6c1.7,1.7,2.6,3.8,2.6,6.3c0,2.5-0.8,4.5-2.5,6.2
		c-1.7,1.7-3.7,2.5-6.1,2.5c-2.5,0-4.6-0.9-6.3-2.6c-1.7-1.7-2.5-3.8-2.5-6.2c0-1.6,0.4-3.1,1.2-4.4c0.8-1.4,1.8-2.4,3.2-3.2
		C307.4,11.5,308.9,11.1,310.4,11.1 M310.4,14.2c-1.6,0-2.9,0.5-3.9,1.6c-1.1,1.1-1.6,2.5-1.6,4.1c0,1.9,0.7,3.3,2,4.4
		c1,0.9,2.2,1.3,3.6,1.3c1.5,0,2.8-0.5,3.9-1.6c1.1-1.1,1.6-2.5,1.6-4.1c0-1.6-0.5-3-1.6-4.1C313.2,14.7,311.9,14.2,310.4,14.2"/>
	<path id="path73" class="st2" d="M166.8,43.8l-5.8,5.5c-3.9-4.1-8.3-6.2-13.2-6.2c-4.1,0-7.6,1.4-10.4,4.2
		c-2.8,2.8-4.2,6.3-4.2,10.4c0,2.9,0.6,5.4,1.9,7.7c1.2,2.2,3,4,5.3,5.3c2.3,1.3,4.8,1.9,7.6,1.9c2.4,0,4.6-0.4,6.5-1.3
		c2-0.9,4.1-2.5,6.5-4.9l5.6,5.8c-3.2,3.1-6.2,5.3-9.1,6.5c-2.8,1.2-6.1,1.8-9.7,1.8c-6.7,0-12.2-2.1-16.5-6.4
		c-4.3-4.3-6.4-9.7-6.4-16.4c0-4.3,1-8.2,2.9-11.5c1.9-3.4,4.7-6.1,8.4-8.1c3.6-2,7.5-3,11.7-3c3.6,0,7,0.7,10.3,2.2
		C161.6,38.9,164.4,41.1,166.8,43.8"/>
	<path id="path77" class="st2" d="M194.5,35.2c6.1,0,11.4,2.2,15.8,6.6c4.4,4.4,6.6,9.8,6.6,16.2c0,6.3-2.2,11.7-6.5,16
		c-4.3,4.4-9.6,6.6-15.8,6.6c-6.5,0-11.9-2.2-16.2-6.7c-4.3-4.5-6.4-9.8-6.4-16c0-4.1,1-7.9,3-11.4c2-3.5,4.8-6.2,8.2-8.3
		C186.7,36.2,190.5,35.2,194.5,35.2 M194.4,43.1c-4,0-7.4,1.4-10.1,4.2c-2.7,2.8-4.1,6.4-4.1,10.7c0,4.8,1.7,8.6,5.1,11.4
		c2.7,2.2,5.7,3.3,9.2,3.3c3.9,0,7.2-1.4,10-4.3c2.7-2.8,4.1-6.3,4.1-10.5c0-4.1-1.4-7.6-4.1-10.5C201.7,44.5,198.3,43.1,194.4,43.1
		"/>
	<path id="path81" class="st2" d="M224.6,36.2h8.2v35.4h12.1v8h-20.3L224.6,36.2L224.6,36.2z"/>
	<path id="path85" class="st2" d="M250.9,36.2h8.2v28c0,2.4,0.2,4.1,0.6,5.1c0.4,1,1.1,1.8,2.2,2.4c1,0.6,2.2,0.9,3.6,0.9
		c1.5,0,2.8-0.3,3.8-1c1.1-0.7,1.8-1.5,2.2-2.5c0.4-1,0.6-3,0.6-5.9v-27h8.2V62c0,4.3-0.2,7.4-0.7,9.1c-0.5,1.7-1.4,3.3-2.8,4.9
		c-1.4,1.6-3,2.7-4.8,3.5c-1.8,0.8-3.9,1.1-6.3,1.1c-3.1,0-5.9-0.7-8.2-2.2c-2.3-1.4-4-3.3-5-5.4c-1-2.2-1.5-5.8-1.5-11L250.9,36.2z
		"/>
	<path id="path89" class="st2" d="M334.5,71.1l1.4,8.4h-7.9l-4.7-27.4l-9.1,27.4h-7.4l-9.1-27.4l-4.9,27.4h-8l7.7-43.3h7.9l10,30.2
		l10.1-30.2h7.9L334.5,71.1z"/>
	<path id="path93" class="st2" d="M343,79.5V36.2h6.8c4,0,6.9,0.3,8.7,0.8c2.6,0.7,4.7,2,6.2,3.8c1.5,1.9,2.3,4.1,2.3,6.6
		c0,1.7-0.3,3.1-1,4.5c-0.7,1.3-1.8,2.6-3.4,3.8c2.6,1.2,4.5,2.8,5.7,4.6c1.2,1.9,1.8,4.1,1.8,6.6c0,2.4-0.6,4.7-1.9,6.7
		c-1.3,2-2.9,3.5-4.9,4.5c-2,1-4.7,1.5-8.2,1.5L343,79.5L343,79.5z M351.2,44.2v9h1.9c2.1,0,3.6-0.4,4.6-1.2c1-0.8,1.5-2,1.5-3.4
		c0-1.3-0.5-2.4-1.5-3.2c-1-0.8-2.4-1.2-4.3-1.2L351.2,44.2L351.2,44.2z M351.2,60.5v11.1h2.1c3.5,0,5.8-0.4,7.1-1.3
		c1.2-0.9,1.8-2.1,1.8-3.8c0-1.9-0.7-3.3-2.1-4.4c-1.4-1.1-3.8-1.6-7.1-1.6L351.2,60.5L351.2,60.5z"/>
	<path id="path95" class="st2" d="M376.7,36.2h8.2v43.3h-8.2V36.2z"/>
	<path id="path99" class="st2" d="M408,36.2h8.3L433,79.5h-8.6l-3.4-8.9h-17.8l-3.5,8.9h-8.6L408,36.2z M412.2,47.7l-5.9,15h11.7
		L412.2,47.7z"/>
	<path id="path103" class="st2" d="M100.6,58c0-22.1,7.7-42.3,20.6-58.2h-12.8C97,16.3,90.4,36.4,90.4,58c0,21.3,6.5,41.1,17.5,57.5
		h12.8C108.1,99.7,100.6,79.7,100.6,58"/>
</g>
</svg>
