<?xml version="1.0" encoding="utf-8"?>
<!-- Generator: Adobe Illustrator 27.9.0, SVG Export Plug-In . SVG Version: 6.00 Build 0)  -->
<svg version="1.1" id="Capa_1" xmlns="http://www.w3.org/2000/svg" xmlns:xlink="http://www.w3.org/1999/xlink" x="0px" y="0px"
	 viewBox="0 0 85 12.7" style="enable-background:new 0 0 85 12.7;" xml:space="preserve">
<style type="text/css">
	.st0{clip-path:url(#SVGID_00000139283440286546411550000010651221180917364881_);}
	.st1{fill:#5C893C;}
</style>
<g>
	<g>
		<g>
			<g>
				<g>
					<g>
						<g>
							<g>
								<g>
									<defs>
										<path id="SVGID_1_" d="M78.7,0c3.5,0,6.3,2.9,6.4,6.2h-0.7c0,0,0,0.2,0,0.4c0,0,0.6,0,0.7,0c-0.1,2.9-2.4,6.1-6.4,6.2
											v-0.9c-1.3,0-2.8-0.6-4-1.9c-0.8-0.9-1.3-2.1-1.3-3.6c0.1-3.6,3.1-5.4,5.3-5.4V0L78.7,0z"/>
									</defs>
									<clipPath id="SVGID_00000132806428140784495790000016120578268852059789_">
										<use xlink:href="#SVGID_1_"  style="overflow:visible;"/>
									</clipPath>
									<g style="clip-path:url(#SVGID_00000132806428140784495790000016120578268852059789_);">
										<g>
											<defs>
												<path id="SVGID_00000119095788918732238420000008634752569857685422_" d="M78.7,0c3.5,0,6.3,2.9,6.4,6.2h-0.7
													c0,0,0,0.2,0,0.4c0,0,0.6,0,0.7,0c-0.1,2.9-2.4,6.1-6.4,6.2v-0.9c-1.3,0-2.8-0.6-4-1.9c-0.8-0.9-1.3-2.1-1.3-3.6
													c0.1-3.6,3.1-5.4,5.3-5.4V0L78.7,0z"/>
											</defs>
											<clipPath id="SVGID_00000022560636808830374800000011820492672171329664_">
												<use xlink:href="#SVGID_00000119095788918732238420000008634752569857685422_"  style="overflow:visible;"/>
											</clipPath>
											
												<g transform="matrix(7.444000e-03 0 0 7.444000e-03 72.5991 -0.2566)" style="clip-path:url(#SVGID_00000022560636808830374800000011820492672171329664_);">
												
													<image style="overflow:visible;" width="1772" height="1772" xlink:href="D63B187FDBD491AB.jpg"  transform="matrix(7.444000e-03 0 0 7.444000e-03 72.5991 -0.2566)">
												</image>
											</g>
										</g>
									</g>
								</g>
							</g>
						</g>
					</g>
				</g>
			</g>
		</g>
		<g>
			<g>
				<g>
					<path class="st1" d="M0,3.2h2.5c0.8,0,1.3,0.1,1.7,0.5C4.5,4,4.7,4.4,4.7,5c0,1.1-0.8,1.4-1.2,1.6c0.4,0.1,1.4,0.4,1.4,1.7
						c0,0.9-0.6,1.4-0.8,1.6c-0.5,0.3-1,0.3-1.6,0.3H0V3.2z M0.9,6.2h1.3c0.3,0,1.4,0,1.4-1.1c0-1-0.9-1-1.4-1H0.9V6.2z M0.9,9.4
						h1.6c0.8,0,1.4-0.4,1.4-1.2C3.9,7.5,3.4,7,2.6,7H0.9V9.4z"/>
					<path class="st1" d="M8.2,3.2h1l2.8,6.9h-1l-0.7-1.8H7l-0.7,1.8h-1L8.2,3.2z M7.3,7.6h2.6L8.6,4.2L7.3,7.6z"/>
					<path class="st1" d="M12.6,3.2h1.3l3.4,5.7V3.2h0.9v6.9H17l-3.5-5.9v5.9h-0.9V3.2z"/>
					<path class="st1" d="M23.6,5.1c0-0.2-0.2-1.2-1.5-1.2c-1.7,0-2,1.7-2,2.9c0,1.3,0.4,2.7,1.9,2.7c0.4,0,0.8-0.1,1.1-0.4
						c0.2-0.3,0.3-0.6,0.3-0.7h1c-0.1,1.4-1.4,1.9-2.6,1.9c-2.4,0-2.9-2.1-2.9-3.5c0-1.5,0.6-3.6,3-3.6c1,0,2.4,0.4,2.5,2H23.6z"/>
					<path class="st1" d="M26.2,4c0.7-0.8,1.7-0.9,2.3-0.9c1.9,0,3.1,1.2,3.1,3.6c0,1.8-0.7,3.7-3.2,3.7c-2.4,0-3.1-1.7-3.1-3.6
						C25.3,6,25.5,4.8,26.2,4z M26.9,8.9c0.4,0.5,1,0.6,1.5,0.6c0.6,0,1.1-0.2,1.5-0.6c0.6-0.7,0.6-1.8,0.6-2.2
						c0-1.6-0.5-2.8-2.1-2.8c-1.8,0-2.2,1.4-2.2,2.8C26.3,7.4,26.5,8.3,26.9,8.9z"/>
					<path class="st1" d="M39.3,5.1c0-0.2-0.2-1.2-1.5-1.2c-1.7,0-2,1.7-2,2.9c0,1.3,0.4,2.7,1.9,2.7c0.4,0,0.8-0.1,1.1-0.4
						c0.2-0.3,0.3-0.6,0.3-0.7h1.1c-0.1,1.4-1.4,1.9-2.6,1.9c-2.4,0-2.9-2.1-2.9-3.5c0-1.5,0.6-3.6,3-3.6c1,0,2.4,0.4,2.5,2H39.3z"
						/>
					<path class="st1" d="M41.9,4c0.7-0.8,1.7-0.9,2.3-0.9c1.9,0,3.1,1.2,3.1,3.6c0,1.8-0.7,3.7-3.2,3.7c-2.3,0-3.1-1.7-3.1-3.6
						C41,6,41.2,4.8,41.9,4z M42.6,8.9c0.4,0.5,1,0.6,1.5,0.6c0.6,0,1.1-0.2,1.5-0.6c0.6-0.7,0.6-1.8,0.6-2.2c0-1.6-0.5-2.8-2.1-2.8
						c-1.8,0-2.2,1.4-2.2,2.8C42,7.4,42.2,8.3,42.6,8.9z"/>
					<path class="st1" d="M48.3,3.2H50l2,5.7l2-5.7h1.6v6.9h-0.9V3.9l-2.3,6.2h-0.9L49.2,4v6.2h-0.9V3.2z"/>
					<path class="st1" d="M59.1,3.2h1l2.8,6.9h-1l-0.7-1.8h-3.2l-0.7,1.8h-1L59.1,3.2z M58.2,7.6h2.6l-1.3-3.4L58.2,7.6z"/>
					<path class="st1" d="M63.6,3.2h4.1V4h-3.1v2.2h3V7h-3v3.1h-1V3.2z"/>
					<path class="st1" d="M68.8,3.2h1v6.9h-1V3.2z"/>
				</g>
			</g>
		</g>
	</g>
</g>
</svg>
