<?xml version="1.0" encoding="UTF-8" standalone="no"?>
<svg
   xmlns:dc="http://purl.org/dc/elements/1.1/"
   xmlns:cc="http://creativecommons.org/ns#"
   xmlns:rdf="http://www.w3.org/1999/02/22-rdf-syntax-ns#"
   xmlns:svg="http://www.w3.org/2000/svg"
   xmlns="http://www.w3.org/2000/svg"
   id="svg5294"
   version="1.1"
   viewBox="0 0 170 52.561684"
   height="52.561684"
   width="170">
  <metadata
     id="metadata5">
    <rdf:RDF>
      <cc:Work
         rdf:about="">
        <dc:format>image/svg+xml</dc:format>
        <dc:type
           rdf:resource="http://purl.org/dc/dcmitype/StillImage" />
        <dc:title></dc:title>
      </cc:Work>
    </rdf:RDF>
  </metadata>
  <defs
     id="defs5280" />
  <g
     transform="matrix(0.8447154,0,0,0.8447154,10.000127,4.4810069)"
     id="g5902">
    <g
       id="g5890"
       style="fill:#1e558e;fill-opacity:1">
      <path
         d="m 13.152322,20.5062 c -4.5664131,0 -7.9010967,1.40775 -10.0040503,4.22175 -2.0984472,2.8185 -3.14842191097,6.579 -3.14842191097,11.29425 0,2.39775 0.28389873097,4.50825 0.85545148097,6.3345 0.56854853,1.83525 1.29932493,3.26475 2.19082703,4.296 0.1434515,0.17025 0.2929114,0.32175 0.4498818,0.47175 l -0.017274,0.0052 c 2.2756962,2.48175 5.7335527,3.7185 10.3855859,3.7185 1.93622,0 4.005376,-0.3405 6.209722,-1.0275 2.199839,-0.6855 3.301637,-1.6095 3.301637,-2.76825 0,-0.60225 -0.323705,-1.41825 -0.97562,-2.45775 -0.652667,-1.03425 -1.242996,-1.557 -1.770988,-1.557 -0.0353,0 -0.77659,0.276 -2.220118,0.81825 -1.44578,0.54825 -3.623088,0.852 -5.21232,0.852 -1.453291,0 -2.829224,-0.56475 -3.831131,-1.2105 -1.3346247,-0.8632 -2.092439,-2.5717 -2.2854601,-5.1187 -0.054076,-1.97925 -0.02103,-1.9695 0.029291,-4.88475 0.0015,-0.02775 0.00376,-0.05175 0.00601,-0.07425 0.039055,-0.642 0.074354,-1.04775 0.074354,-1.04775 0.260616,-1.98525 0.8156456,-3.399 1.656827,-4.3665 0.9906413,-1.131 2.3650721,-1.69575 4.1330551,-1.69575 1.761974,0 3.150675,0.69225 4.157839,2.085 1.004912,1.38525 1.605756,3.195 1.796524,5.21175 -1.242245,0.081 -2.250912,0.147 -2.617427,0.171 -1.445029,0.09075 -2.887806,0.1905 -4.397426,0.28125 -0.255358,0.01725 -0.509966,0.0465 -0.760067,0.072 -0.114912,0.0135 -0.224566,0.02625 -0.337224,0.0375 -0.648911,0.063 -1.1536201,0.58725 -1.1904218,1.2375 -0.045063,0.78825 0.4618988,1.458 1.2294768,1.64025 0.06835,0.01875 0.134439,0.0255 0.208793,0.02925 1.268532,0.0945 2.579874,0.18675 3.90173,0.27375 1.628287,0.11325 6.912709,0.2295 8.52222,0.34125 l 2.696286,-4.55175 c -0.02178,-3.912 -1.052978,-5.8215 -3.239299,-8.5245 C 20.732719,21.8697 17.469386,20.5062 13.152322,20.5062"
         id="Fill-1"
         style="fill:#1e558e;fill-opacity:1;fill-rule:evenodd;stroke:none;stroke-width:1" />
      <path
         d="m 69.054387,20.5062 c -4.567165,0 -7.901849,1.40775 -10.000296,4.22175 -2.099949,2.8185 -3.150675,6.579 -3.150675,11.29425 0,2.39775 0.285401,4.50825 0.8547,6.3345 0.573055,1.83525 1.30233,3.26475 2.190076,4.296 0.146456,0.17025 0.294414,0.32175 0.449131,0.47175 l -0.01502,0.0052 c 2.273443,2.48175 5.735055,3.7185 10.38784,3.7185 1.935468,0 4.005375,-0.3405 6.211975,-1.0275 2.196835,-0.6855 3.297881,-1.6095 3.297881,-2.76825 0,-0.60225 -0.324455,-1.41825 -0.978624,-2.45775 -0.650414,-1.03425 -1.23849,-1.557 -1.770987,-1.557 -0.03305,0 -0.776591,0.276 -2.219368,0.81825 -1.445029,0.54825 -3.621586,0.852 -5.207063,0.852 -1.457046,0 -2.835232,-0.56475 -3.834886,-1.2105 -1.330869,-0.86325 -2.09319,-2.57175 -2.286211,-5.11875 -0.04957,-1.97925 -0.01802,-1.9695 0.03004,-4.88475 0.0038,-0.02775 0.0038,-0.05175 0.006,-0.07425 0.0368,-0.642 0.0721,-1.04775 0.0721,-1.04775 0.266624,-1.98525 0.815645,-3.399 1.65908,-4.3665 0.990641,-1.131 2.365823,-1.69575 4.1293,-1.69575 1.769485,0 3.15443,0.69225 4.163097,2.085 1.004911,1.38525 1.604253,3.195 1.795021,5.21175 -1.242245,0.081 -2.250912,0.147 -2.616675,0.171 -1.444279,0.09075 -2.887055,0.1905 -4.398178,0.28125 -0.253856,0.01725 -0.507713,0.0465 -0.760067,0.072 -0.111156,0.0135 -0.226819,0.02625 -0.337224,0.0375 -0.647409,0.063 -1.15362,0.58725 -1.190422,1.2375 -0.04281,0.78825 0.459646,1.458 1.226473,1.64025 0.07135,0.01875 0.139696,0.0255 0.211797,0.02925 1.268532,0.0945 2.581376,0.18675 3.90173,0.27375 1.62979,0.11325 6.910456,0.2295 8.524473,0.34125 l 2.697789,-4.55175 c -0.02779,-3.912 -1.054481,-5.8215 -3.241553,-8.5245 -2.217103,-2.7442 -5.484942,-4.1077 -9.801254,-4.1077"
         id="Fill-4"
         style="fill:#1e558e;fill-opacity:1;fill-rule:evenodd;stroke:none;stroke-width:1" />
      <path
         d="m 97.665746,20.5062 c -4.709865,0 -9.246987,1.07475 -13.59184,3.2355 v 16.09275 11.077012 l 3.0613,-2.62e-4 c 0,0 4.069966,0.1035 4.069966,-3.7995 V 43.17495 39.83445 27.2982 c 1.933215,-0.34425 3.768793,-0.51675 5.505983,-0.51675 1.544169,0 2.810447,0.1425 3.799585,0.42825 0.98238,0.29625 1.69138,0.72975 2.12248,1.3035 0.43562,0.585 0.72402,1.1355 0.87348,1.6665 0.1412,0.531 0.21705,1.19025 0.21705,1.9815 v 7.67325 11.07675 h 3.05379 c 0,0 4.07222,0.1035 4.07222,-3.7995 v -2.00175 -5.2755 -7.06575 c 0,-3.87375 -1.16639,-6.8925 -3.49165,-9.04425 -2.32902,-2.1435 -5.55706,-3.21825 -9.692364,-3.21825"
         id="Fill-6"
         style="fill:#1e558e;fill-opacity:1;fill-rule:evenodd;stroke:none;stroke-width:1" />
      <path
         d="m 132.12955,43.2267 c -1.12508,1.28475 -2.851,1.9275 -5.18754,1.9275 -2.34103,0 -4.07222,-0.64275 -5.2033,-1.9275 -1.12734,-1.28175 -1.69363,-3.759 -1.69363,-7.43475 0,-3.672 0.56629,-6.15675 1.69363,-7.44975 1.13108,-1.29375 2.86227,-1.94325 5.2033,-1.94325 2.33654,0 4.06246,0.6495 5.18754,1.94325 1.11457,1.293 1.68086,3.77775 1.68086,7.44975 0,3.67575 -0.56629,6.153 -1.68086,7.43475 m -5.20706,-22.6665 c -4.50558,0 -7.9717,1.30725 -10.38559,3.9315 -2.41614,2.6235 -3.62159,6.38625 -3.62159,11.28375 0,4.9035 1.20545,8.67 3.62159,11.28825 2.41389,2.62575 5.88001,3.936 10.38559,3.936 4.51008,0 7.97395,-1.31025 10.39384,-3.936 2.41089,-2.61825 3.61784,-6.38475 3.61784,-11.28825 0,-4.8975 -1.20695,-8.66025 -3.61784,-11.28375 -2.41989,-2.62425 -5.88376,-3.9315 -10.39384,-3.9315"
         id="Fill-8"
         style="fill:#1e558e;fill-opacity:1;fill-rule:evenodd;stroke:none;stroke-width:1" />
      <path
         d="m 157.64123,20.5062 c -2.53105,0.033 -5.00278,0.34125 -7.56688,0.93375 -2.57236,0.57375 -4.28176,1.026 -5.12895,1.3425 -0.8532,0.31275 -1.52314,0.5865 -2.00457,0.816 v 16.236 11.077012 l 3.05755,-2.62e-4 c 0,0 4.07597,0.1035 4.07597,-3.7995 v -2.41125 -4.866 -12.24375 c 2.11873,-0.61425 4.66706,-0.9405 7.64649,-0.981 z"
         id="Fill-10"
         style="fill:#1e558e;fill-opacity:1;fill-rule:evenodd;stroke:none;stroke-width:1" />
      <path
         d="m 46.538964,41.700975 c 0,2.13 -1.798777,3.18825 -5.388819,3.18825 -2.259924,0 -3.845401,-0.768 -4.754177,-2.32125 -0.906523,-1.545 -1.36016,-4.05975 -1.36016,-7.54425 0,-3.32925 0.579814,-5.6535 1.738692,-6.9795 1.155122,-1.32525 2.848,-1.986 5.067367,-1.986 1.739443,0.018 3.308396,0.17925 4.697097,0.492 z m 3.052287,-32.10825 h -3.052287 v 11.36925 c -1.698135,-0.3075 -3.341443,-0.456 -4.929173,-0.456 -4.422211,0 -7.809469,1.278 -10.164777,3.83325 -2.35681,2.56275 -3.535966,6.24825 -3.535966,11.064 0,2.64825 0.335722,4.97925 1.013173,6.99975 0.672194,2.022 1.497603,3.55275 2.46346,4.5975 0.962852,1.041 2.096945,1.89225 3.405283,2.54925 1.302329,0.65775 2.443181,1.05975 3.420303,1.21875 0.973368,0.15375 1.951241,0.23175 2.938878,0.23175 4.232194,0 7.373106,-0.981 9.430996,-2.94225 2.058641,-1.96125 3.085333,-4.30575 3.085333,-7.0275 v -16.491 -10.56225 -0.5865 c 0,-3.90525 -4.075223,-3.798 -4.075223,-3.798 z"
         id="Fill-12"
         style="fill:#1e558e;fill-opacity:1;fill-rule:evenodd;stroke:none;stroke-width:1" />
    </g>
    <path
       style="opacity:1;fill:#4a96f9;fill-opacity:0.98280801;fill-rule:evenodd;stroke:none;stroke-width:1"
       id="Fill-15"
       d="m 175.55261,12.8904 c -1.11907,4.15275 -4.90889,7.2045 -9.41898,7.2045 -1.40747,0 -2.7421,-0.2985 -3.95205,-0.8355 0.5663,3.71625 3.7688,6.567 7.64799,6.567 4.27801,0 7.74488,-3.46425 7.74488,-7.73625 0,-2.00775 -0.76908,-3.8265 -2.02184,-5.19975" />
    <path
       style="opacity:1;fill:#01fb00;fill-opacity:1;fill-rule:evenodd;stroke:none;stroke-width:1"
       id="Fill-18"
       d="m 169.8295,10.3539 c 2.27044,0 4.3073,0.9795 5.72304,2.5365 0.2178,-0.8085 0.33422,-1.6575 0.33422,-2.53425 0,-5.38275 -4.36438,-9.74175 -9.7532,-9.74175 -5.38882,0 -9.7532,4.359 -9.7532,9.74175 0,3.9735 2.3831,7.389 5.80115,8.90325 -0.0578,-0.38175 -0.0991,-0.771 -0.0991,-1.17 0,-4.27125 3.46912,-7.7355 7.74713,-7.7355" />
    <path
       style="fill:#1e558e;fill-opacity:1;fill-rule:evenodd;stroke:none;stroke-width:1"
       id="Fill-20"
       d="m 175.55261,12.8904 c -1.41649,-1.557 -3.4526,-2.5365 -5.72304,-2.5365 -4.278,0 -7.74788,3.465 -7.74788,7.73625 0,0.39825 0.0421,0.7875 0.0999,1.16925 1.20995,0.537 2.54458,0.8355 3.95205,0.8355 4.51009,0 8.29991,-3.05175 9.41898,-7.2045" />
  </g>
</svg>
