<?xml version="1.0" encoding="utf-8"?>
<!-- Generator: Adobe Illustrator 27.9.0, SVG Export Plug-In . SVG Version: 6.00 Build 0)  -->
<svg version="1.1"
	 id="svg3049" xmlns:dc="http://purl.org/dc/elements/1.1/" xmlns:rdf="http://www.w3.org/1999/02/22-rdf-syntax-ns#" xmlns:cc="http://creativecommons.org/ns#" xmlns:svg="http://www.w3.org/2000/svg" xmlns:inkscape="http://www.inkscape.org/namespaces/inkscape" xmlns:sodipodi="http://sodipodi.sourceforge.net/DTD/sodipodi-0.dtd" inkscape:version="0.48.1 " sodipodi:docname="bancogaliciahigh.svg"
	 xmlns="http://www.w3.org/2000/svg" xmlns:xlink="http://www.w3.org/1999/xlink" x="0px" y="0px" viewBox="0 0 522.2 133.6"
	 style="enable-background:new 0 0 522.2 133.6;" xml:space="preserve">
<style type="text/css">
	.st0{fill-rule:evenodd;clip-rule:evenodd;fill:#EF945A;}
	.st1{fill-rule:evenodd;clip-rule:evenodd;fill:#CE4A63;}
	.st2{fill-rule:evenodd;clip-rule:evenodd;fill:#AD2931;}
	.st3{fill-rule:evenodd;clip-rule:evenodd;fill:#FF6600;}
	.st4{fill-rule:evenodd;clip-rule:evenodd;fill:#FFFFFF;}
	.st5{fill-rule:evenodd;clip-rule:evenodd;fill:#F7CEB5;}
	.st6{fill-rule:evenodd;clip-rule:evenodd;fill:#EFAD84;}
	.st7{fill-rule:evenodd;clip-rule:evenodd;fill:#EFAD7B;}
</style>
<sodipodi:namedview  bordercolor="#666666" borderopacity="1" gridtolerance="10" guidetolerance="10" id="namedview3092" inkscape:current-layer="svg3049" inkscape:cx="275" inkscape:cy="80" inkscape:pageopacity="0" inkscape:pageshadow="2" inkscape:window-height="706" inkscape:window-maximized="1" inkscape:window-width="1366" inkscape:window-x="-8" inkscape:window-y="-8" inkscape:zoom="1.5069278" objecttolerance="10" pagecolor="#ffffff" showgrid="false">
	</sodipodi:namedview>
<g id="g3935">
	<path id="_160380232" inkscape:connector-curvature="0" class="st0" d="M95.9,133.3c142.2,0,284.3,0.1,426.6,0.1
		c-0.1,0.1-0.1,0.2-0.2,0.3c-142.3-0.1-284.5-0.2-426.8-0.2C95.7,133.4,95.8,133.4,95.9,133.3L95.9,133.3z"/>
	<path id="_160380328" inkscape:connector-curvature="0" class="st1" d="M0.2,133.6C0.2,133.5,0.2,133.5,0.2,133.6
		c22.9-0.1,45.9-0.1,68.9,0C46.1,133.6,23.1,133.6,0.2,133.6z"/>
	<path id="_160380064" inkscape:connector-curvature="0" class="st1" d="M0.2,0v0.1c0,44.4,0,88.9,0,133.4c0,0,0,0,0,0.1
		c-0.1,0-0.2,0-0.2,0C0,89.1,0,44.5,0,0C0,0,0.1,0,0.2,0L0.2,0z"/>
	<path id="_160931448" inkscape:connector-curvature="0" class="st2" d="M69.1,133.6c-23-0.1-46-0.1-68.9-0.1c0-44.5,0-89,0-133.4
		c23,0,45.9-0.1,68.9-0.1c2.4,0.2,4.8,0.3,7.2,0.5c0.2,0.2,3,0.5,3.2,0.7c13,2.4,23.6,8.5,33.5,17c4.8,5,8.7,10,12.4,15.9
		c1.3,2.8,2.7,5.5,4,8.3c1.9,6.1,3.3,11.7,4.2,17.9c0,3.3,0.1,6.7,0.3,10c-0.3,2.6-0.6,5.1-0.9,7.7c-2.1,10-5.7,18.6-11.2,27.2
		c-2.8,3.7-2.8,3.7-3,4.1c-7.4,7.8-14.5,13.5-24,18.3c-2.4,0.9-4.7,1.8-7,2.7C81.8,132.1,75.5,133.3,69.1,133.6L69.1,133.6z"/>
	<path id="_160931544" inkscape:connector-curvature="0" class="st3" d="M95.9,133.3c8.8-3.9,16.4-8.9,23.6-15.3
		c0.3-0.5,2.8-2.9,7.1-7.9c3.9-5.5,7.4-10.9,10.3-17c0.9-2.4,1.8-4.7,2.7-7c5-16.6,4.7-32.7-0.5-49.2c-0.9-2.2-1.7-4.4-2.6-6.6
		c-4.9-9.6-10.8-17.7-18.6-25.2c-2-1.7-4-3.4-6-5C248.6,0.1,385.4,0,522.2,0c0,0.1,0.1,0.1,0.2,0.2c0,44.4,0,88.8,0,133.3
		C380.3,133.4,238.1,133.3,95.9,133.3L95.9,133.3z"/>
	<path id="_160931640" inkscape:connector-curvature="0" class="st4" d="M66.8,119.5c-2.8-19.7-6-39.5-8.1-59.3c3.1-1.6,4-4.9,5-8.1
		c0.6-3.4,1.5-7.2,1.3-10.7c-6,0.2-12.5,0.8-17.9,3.4c-6.7,0-7.1-9.4-0.2-10c6,2.3,12,3.2,18.3,3.4c-0.3-6.3-1-12.2-3.3-18
		c0-1.7,0.4-2.7,1.5-3.9c4-2.6,7.8-0.9,8.5,3.8c-2.5,6-2.8,11.5-3.3,17.9c0.1,0,0.2,0.1,0.4,0.2c6.1-0.3,12.3-0.9,18-3.4
		c6.9,0.7,6.5,10-0.2,10c-5.4-2.7-12.1-3.1-18.1-3.3c0.4,3.7,0.8,17.3,6.5,18.7c-0.3,3-0.5,3.2-6.3,46.7
		C68.5,107.2,67,119.1,66.8,119.5L66.8,119.5z"/>
	<path id="_160931712" inkscape:connector-curvature="0" class="st4" d="M385.3,108.1c-8.8-0.8-14.6-3.8-19.5-11.3
		c-0.8-1.6-1.5-3.1-2.2-4.7c-4.7-18.2,4.2-37,23.9-39.2c5.5,0,10.6,1.3,15.8,3c-0.1,0.8-0.1,0.8-3.1,8.6c-1.5-0.2-1.5-0.2-4.9-0.9
		c-2,0-3.9,0-5.9,0c-4.1,1-6.8,2.2-9.7,5.3c-5.6,8.2-6.6,19.4,2,26c1.1,0.5,2.2,1,3.3,1.5c5.1,0.7,10,0.4,15-1.2
		c1.1-0.5,1.1-0.5,1.4-0.5c1.1,2,3,4.6,3.4,6.8C398.6,105.3,392.4,107.3,385.3,108.1L385.3,108.1z"/>
	<path id="_160931784" inkscape:connector-curvature="0" class="st4" d="M229.8,43.2c-1.4,0-2.7,0-4,0c-9,0-16.3,5.2-21.3,12.2
		c-1.5,3.2-2.2,5.4-2.4,5.6c-1.8,7.3-1.3,13.9,1.1,20.9c3.6,6.8,7.4,10.4,14.5,13.2c1.5,0.3,3,0.6,4.6,0.9c3.2,0,8.3,0.4,11-1
		c0-5.6,0.1-11.2,0.1-16.9c0-0.2,0-0.2-12.9-0.4c-0.1-3.6-0.1-7.1-0.1-10.7c0-0.1,0-0.1,0-0.1c8.6,0,17.3,0,26,0
		c0,11.9,0,23.8,0.1,35.8c-2.5,0.9-5,1.7-7.5,2.6c-4.3,1-8.3,2-12.8,2.5c-6.1,0.3-11.2-0.3-17.1-2c-11.2-4.7-17.9-12.6-21.3-24.3
		c-1.7-9.2-1.7-17,1-26.1c1.8-4.5,4.3-8.1,7.2-12c5.4-5.4,10.7-8.1,17.9-10.6c10.4-2.3,20.4-1,30.6,1.8c-1.2,3.4-2.4,6.8-3.5,10.2
		C234.2,43.6,234.2,43.6,229.8,43.2L229.8,43.2z"/>
	<path id="_160943568" class="st4" d="M279.3,53.1c-6.4,0.2-12.7,2.7-19.2,5.3c1,2.6,1.9,5.2,2.9,7.8c2.8-0.9,5.6-1.8,8.5-2.7
		c3.1-0.7,6.6-0.9,9.8-0.3c4.9,2.1,5.1,6,5.3,10.8c-8.9,0.6-17.3,0.7-24.8,5.8c-1.6,1.6-3.3,3.1-4.4,5.1c-1.7,4.4-1.5,8-0.5,12.4
		c2.5,5.2,5.1,8,10.6,10c7.8,1.5,13.3-1.7,19-6.9c0.1,0,0.2,0.1,0.3,0.1c0.8,5.4,1,5.6,1,5.9c3.8,0,7.5,0,11.3,0.1
		c-0.1-12.7-0.1-25.4-0.2-38.1c-1.1-5.7-2.9-9.6-7.6-13C287.1,53.6,283.2,52.9,279.3,53.1z M286.5,82.3c0,3.2,0.1,6.4,0.1,9.6
		c-2.3,3.8-8,5.6-12.2,6.1c-2.9-0.8-4.8-1.6-6.1-4.5C266.6,83,279.1,82.5,286.5,82.3z"/>
	<path id="_160943640" class="st4" d="M458.4,53c-6.2,0.7-12.2,2.8-17.8,5.5c-0.4,1.2,1.9,6.2,2.9,7.8c5.7-2.1,10.4-3.5,16.5-3.5
		c0.2,0.2,0.2,0.2,2.2,0.6c4.4,2.3,4.4,6,4.8,10.7c-10.8,0.7-25.5,0.6-30.1,12.9c-2.1,10.2,3,19.3,13.7,20.9c6.5,0,11.6-3,16.1-7.4
		c0.2-0.1,0.3-0.1,0.5-0.1c0.8,5.3,0.7,5.3,1.1,6.3c3.7,0,7.3-0.1,11.1-0.1c0-12,0-24,0-35.9c-0.7-7.3-2.5-11.6-8.7-15.7
		c-3.4-1.4-4.9-1.5-5.1-1.8C463.2,53.1,460.8,53.1,458.4,53z M466.9,82.2c0,3.3,0,6.7,0.1,10.1c-4.5,3.7-13,9.1-17.6,2.5
		C444.4,83.9,459.8,82.4,466.9,82.2z"/>
	<path id="_160943712" inkscape:connector-curvature="0" class="st0" d="M339.3,106.7c4.2,0,8.4-0.1,12.7-0.1
		C351.3,107.3,340.9,106.7,339.3,106.7z"/>
	<path id="_160943808" inkscape:connector-curvature="0" class="st0" d="M468.2,106.7c3.7,0,7.3-0.1,11-0.1c0.1,0,0.1,0,0.2,0
		c-0.2,0.1-0.3,0.1-0.5,0.2C475.4,106.7,471.8,106.7,468.2,106.7L468.2,106.7z"/>
	<path id="_160943784" inkscape:connector-curvature="0" class="st0" d="M287.7,106.5c3.8,0,7.5,0.1,11.3,0.1
		C287.5,106.6,287.5,106.6,287.7,106.5z"/>
	<path id="_160943952" inkscape:connector-curvature="0" class="st0" d="M312,27.1c0,26.5,0.1,52.9,0.1,79.4c4.3,0,8.7,0,13.1,0
		c-4.5,0-8.9,0-13.4,0C311.8,80.1,311.9,53.6,312,27.1z"/>
	<path id="_160943928" inkscape:connector-curvature="0" class="st0" d="M414.7,106.6c4.3,0,8.7,0,13.1,0
		C414.7,106.7,414.7,106.7,414.7,106.6z"/>
	<path id="_160201728" inkscape:connector-curvature="0" class="st0" d="M339,54.3c0,17.5,0,35,0,52.4
		C338.8,106.7,338.8,106.7,339,54.3z"/>
	<path id="_160201800" inkscape:connector-curvature="0" class="st4" d="M339,106.7c0-17.5,0-35,0-52.4c0.1,0,0.1,0,0.2,0
		c4.2,0,8.4,0,12.7,0c0.1,17.4,0.1,34.9,0.2,52.3c-4.3,0-8.5,0.1-12.7,0.1C339.2,106.7,339.1,106.7,339,106.7L339,106.7z"/>
	<path id="_160201896" inkscape:connector-curvature="0" class="st4" d="M312,27.1c0-0.1,0-0.2,0-0.3c4.4,0,8.7,0,13.2,0
		c0,26.6,0,53.1,0,79.7c-4.4,0-8.7,0-13.1,0C312,80.1,312,53.6,312,27.1L312,27.1z"/>
	<path id="_160201968" inkscape:connector-curvature="0" class="st4" d="M414.7,106.6c0-17.4,0-34.9,0-52.2c4.3,0,8.6-0.1,12.9-0.1
		c0.1,17.4,0.1,34.9,0.2,52.3C423.3,106.6,419,106.6,414.7,106.6z"/>
	<path id="_160202040" inkscape:connector-curvature="0" class="st5" d="M479.3,106.6c0-12,0-24,0.1-35.9c0,12,0,23.9,0.1,35.9
		C479.4,106.6,479.3,106.6,479.3,106.6L479.3,106.6z"/>
	<path id="_160202136" inkscape:connector-curvature="0" class="st5" d="M246.5,102.7c-0.1-12-0.1-23.9-0.1-35.8
		c0-0.1,0-0.1,0.1-0.1C246.5,78.8,246.5,90.7,246.5,102.7z"/>
	<path id="_160208248" inkscape:connector-curvature="0" class="st6" d="M467,92.3c0-3.4-0.1-6.7-0.1-10c0.1,0,0.1,0,0.2,0.1
		C467,85.6,467,89,467,92.3L467,92.3z"/>
	<path id="_160208344" inkscape:connector-curvature="0" class="st7" d="M220.3,77.7c0.1,0,0.1,0,0.2,0c12.9,0.2,12.9,0.2,12.9,0.4
		c-4.3-0.1-8.6-0.1-13-0.1C220.4,77.9,220.3,77.8,220.3,77.7z"/>
	<path id="_160208440" inkscape:connector-curvature="0" class="st5" d="M220.3,77.7c0-3.6,0.1-7.1,0.1-10.7c0,3.6,0,7.1,0.1,10.7
		C220.4,77.7,220.4,77.7,220.3,77.7z"/>
	<path id="_160208512" inkscape:connector-curvature="0" class="st6" d="M220.4,66.9c0-0.2,0-0.2,26.1-0.1c-0.1,0-0.1,0-0.1,0.1
		C237.7,66.9,229,66.9,220.4,66.9z"/>
	<path id="_160201872" inkscape:connector-curvature="0" class="st5" d="M414.7,54.4c0-0.2,0-0.2,12.9-0.1
		C423.2,54.3,418.9,54.3,414.7,54.4z"/>
	<path id="_160211680" inkscape:connector-curvature="0" class="st4" d="M345.1,42.7c-6.6-0.8-8.3-7.9-4.2-12.6
		c6.5-4.1,12.9,0.9,11,8.3C350.2,41.2,348.3,42.4,345.1,42.7L345.1,42.7z"/>
	<path id="_160211752" inkscape:connector-curvature="0" class="st4" d="M420.8,42.7c-5.6-1.1-8.1-5.9-5.4-11.2
		c3.2-3.6,8.1-4,11.5-0.2c2.4,5,0.9,9.2-4.1,11.1C422,42.5,421.4,42.6,420.8,42.7z"/>
	<path id="_160211824" inkscape:connector-curvature="0" class="st6" d="M312,26.8c0.1-0.2,0.1-0.3,0.2-0.4c4.2,0,8.5,0,12.8,0
		c0.1,0.1,0.1,0.2,0.2,0.4C320.7,26.8,316.3,26.8,312,26.8L312,26.8z"/>
	<path id="_160211896" inkscape:connector-curvature="0" class="st1" d="M0.2,0.1V0c22.9,0,45.9,0,68.9,0C46.1,0,23.1,0.1,0.2,0.1z"
		/>
	<path id="_160211656" inkscape:connector-curvature="0" class="st0" d="M111.9,0.1c0-0.1,0-0.1,410.3-0.1
		C385.5,0,248.7,0.1,111.9,0.1L111.9,0.1z"/>
</g>
</svg>
