<?xml version="1.0" encoding="utf-8"?>
<!-- Generator: Adobe Illustrator 27.9.0, SVG Export Plug-In . SVG Version: 6.00 Build 0)  -->
<svg version="1.1" id="Layer_1" xmlns="http://www.w3.org/2000/svg" xmlns:xlink="http://www.w3.org/1999/xlink" x="0px" y="0px"
	 viewBox="0 0 111 30" style="enable-background:new 0 0 111 30;" xml:space="preserve">
<style type="text/css">
	.st0{fill:#FFFFFF;}
	.st1{fill:#DB0011;}
</style>
<g id="Page-1">
	<g id="Group">
		<g id="HSBC_MASTERBRAND_LOGO_RGB">
			<rect id="Rectangle-path" x="14.9" y="0" class="st0" width="29.7" height="29.7"/>
			<polygon id="Shape" class="st1" points="59.3,14.9 44.5,0 44.5,29.7 			"/>
			<polygon id="Shape_00000115506312917025560030000017120419768352217522_" class="st1" points="29.7,14.9 44.5,0 14.9,0 			"/>
			<polygon id="Shape_00000074418852735157265280000006049137758763840907_" class="st1" points="0,14.9 14.9,29.7 14.9,0 			"/>
			<polygon id="Shape_00000155850304369854151710000003445960321968948373_" class="st1" points="29.7,14.9 14.9,29.7 44.5,29.7 			
				"/>
			<polygon id="Shape_00000159450145822832391870000006496041915053550996_" points="72.3,15.7 67,15.7 67,21 64.3,21 64.3,8.6 
				67,8.6 67,13.7 72.3,13.7 72.3,8.6 75,8.6 75,21 72.3,21 			"/>
			<path id="Shape_00000170250915079301932680000007347217019361600900_" d="M81.5,21.3c-2.7,0-4.9-1.1-4.9-4h2.7
				c0,1.3,0.8,2.1,2.3,2.1c1.1,0,2.3-0.6,2.3-1.8c0-1-0.8-1.3-2.2-1.7l-0.9-0.2c-2-0.6-3.9-1.3-3.9-3.6c0-2.8,2.6-3.7,4.9-3.7
				c2.4,0,4.5,0.8,4.5,3.6h-2.7c-0.1-1.1-0.8-1.8-2-1.8c-1,0-2,0.5-2,1.6c0,0.9,0.8,1.2,2.6,1.7l1,0.3c2.1,0.7,3.5,1.4,3.5,3.5
				C86.7,20.2,84,21.3,81.5,21.3z"/>
			<path id="Shape_00000116934537234846711540000004425184576667669661_" d="M88.2,8.7h4.3c0.8,0,1.6,0,2.4,0.1
				c1.5,0.3,2.7,1.3,2.7,3c0,1.6-1,2.4-2.5,2.8c1.7,0.3,2.9,1.2,2.9,3c0,2.8-2.8,3.5-5,3.5h-4.9L88.2,8.7z M92.5,13.8
				c1.2,0,2.4-0.2,2.4-1.7c0-1.3-1.1-1.6-2.2-1.6h-1.9v3.3H92.5z M92.8,19.2c1.3,0,2.5-0.3,2.5-1.8s-1-1.8-2.3-1.8h-2.1v3.6H92.8z"
				/>
			<path id="Shape_00000085244706975096174680000014154065473922872463_" d="M105.1,21.3c-4,0-5.8-2.5-5.8-6.3s2-6.6,5.9-6.6
				c2.5,0,4.9,1.1,5,3.9h-2.8c-0.1-1.3-1-1.9-2.2-1.9c-2.4,0-3.2,2.6-3.2,4.6s0.7,4.3,3.1,4.3c1.2,0,2.1-0.7,2.3-1.9h2.8
				C109.9,20.2,107.7,21.3,105.1,21.3z"/>
		</g>
	</g>
</g>
</svg>
