<?xml version="1.0" encoding="utf-8"?>
<!-- Generator: Adobe Illustrator 28.1.0, SVG Export Plug-In . SVG Version: 6.00 Build 0)  -->
<svg version="1.1" id="Layer_1" xmlns="http://www.w3.org/2000/svg" xmlns:xlink="http://www.w3.org/1999/xlink" x="0px" y="0px"
	 viewBox="0 0 355.9 114.76" style="enable-background:new 0 0 355.9 114.76;" xml:space="preserve">
<style type="text/css">
	.st0{fill:#4BBAEB;}
</style>
<g>
	<g>
		<path class="st0" d="M0,1.51h28.84v111.74H0V1.51z"/>
		<path class="st0" d="M45.3,1.51h23.1l40.92,54.66l7.85,12.23h1.51V1.51h25.07v111.74H120.8L80.48,59.34l-8.61-13.14h-1.36v67.04
			H45.3V1.51z"/>
		<path class="st0" d="M150.54,111.89L183.46,1.51h42.88l33.07,110.38v1.36h-27.63l-7.4-25.07h-39.11l-7.25,25.07h-27.48V111.89z
			 M218.34,65.84l-6.64-23.56l-5.74-20.54h-2.11l-5.74,20.69l-6.64,23.4H218.34z"/>
		<path class="st0" d="M266.06,2.27C277.53,0.75,288.61,0,299.28,0c9.97,0,18.52,0.78,25.67,2.34c7.15,1.56,13.01,4,17.59,7.32
			c4.58,3.32,7.95,7.55,10.12,12.68c2.16,5.13,3.25,11.28,3.25,18.42c0,13.79-4.53,23.99-13.59,30.58c-9.06,6.59-23,9.89-41.83,9.89
			h-5.59v32.01h-28.84V2.27z M304.71,58.89c4.23,0,7.72-0.3,10.5-0.91c2.77-0.6,5.01-1.61,6.72-3.02c1.71-1.41,2.92-3.27,3.62-5.59
			c0.7-2.31,1.06-5.18,1.06-8.61c0-3.42-0.33-6.29-0.98-8.61c-0.66-2.31-1.81-4.18-3.47-5.59c-1.66-1.41-3.88-2.42-6.64-3.02
			c-2.77-0.6-6.27-0.91-10.49-0.91c-1.61,0-3.42,0.05-5.44,0.15c-2.01,0.1-3.57,0.25-4.68,0.45v34.88c1.31,0.2,2.87,0.38,4.68,0.53
			C301.39,58.81,303.1,58.89,304.71,58.89z"/>
	</g>
</g>
</svg>
