<svg xmlns="http://www.w3.org/2000/svg" viewBox="0 0 100 30">
	<path d="M57.5016 12.9101L50.5443 0.454448H42.8739L53.6878 20.3995V29.4619H61.3583V20.1922L71.961 0.454448H64.2919L57.5016 12.9101ZM95.5148 19.8202C94.4813 20.8685 93.3078 21.6962 91.9957 22.3021C90.6811 22.9093 89.4242 23.2134 88.2224 23.2134C86.7421 23.2134 85.3945 22.8474 84.1779 22.1167C82.9628 21.3859 82.0054 20.3789 81.3082 19.0954C80.6085 17.8134 80.2599 16.3857 80.2599 14.8127C80.2599 13.2409 80.6085 11.8134 81.3082 10.5312C82.0054 9.24781 82.9628 8.24075 84.1779 7.50998C85.3945 6.77922 86.7421 6.41324 88.2224 6.41324C89.5076 6.41324 90.8075 6.76468 92.1209 7.46878C93.4331 8.17166 94.5648 9.11692 95.5148 10.3034L99.9582 5.00624C98.4767 3.46233 96.6747 2.24076 94.5512 1.34518C92.4277 0.448388 90.2772 0 88.0973 0C85.1353 0 82.4596 0.648352 80.071 1.94385C77.6822 3.24055 75.803 5.0208 74.4331 7.28216C73.0646 9.54472 72.3809 12.0824 72.3809 14.8964C72.3809 17.737 73.0511 20.3037 74.3927 22.5929C75.733 24.8822 77.5767 26.6891 79.9248 28.0137C82.2718 29.3371 84.8972 30 87.804 30C89.9545 30 92.127 29.5092 94.3206 28.5311C96.514 27.5519 98.4079 26.2347 100 24.5792L95.5148 19.8202ZM7.67041 0.454448H0V29.4619H20.1181V23.0062H7.67041V0.454448ZM32.3129 0.454448H24.6438V29.4619H44.7617V23.0062H32.3129V0.454448Z" fill="#e45767"/>
</svg>