<?xml version="1.0" encoding="UTF-8"?>
<svg id="SVGRoot" width="500" height="265.7" version="1.1" viewBox="0 0 500 265.70428" xmlns="http://www.w3.org/2000/svg" xmlns:cc="http://creativecommons.org/ns#" xmlns:dc="http://purl.org/dc/elements/1.1/" xmlns:rdf="http://www.w3.org/1999/02/22-rdf-syntax-ns#"><metadata><rdf:RDF><cc:Work rdf:about=""><dc:format>image/svg+xml</dc:format><dc:type rdf:resource="http://purl.org/dc/dcmitype/StillImage"/><dc:title/></cc:Work></rdf:RDF></metadata><g transform="translate(-263.78 -127.04)"><path class="st1" d="m429.4 344.78c-13.915 2.8005-32.666 13.068-32.497 31.649 0.0862 10.69 13.067 16.714 27.915 16.293 5.7697-0.25713 11.539-0.85074 17.309-1.9535l5.5151-14.339c-7.297 1.187-14.339 2.8836-19.77 0.67917-9.9273-3.9888-3.8181-14.255 3.2243-17.48 3.8182-1.7806 8.0606-2.7134 12.303-2.628 2.1212 0 7.2122 0.0754 9.1636 4.6647l6.9574-16.629c-11.964-2.8858-23.927-1.5272-30.121-0.25624zm75.175-0.42293-6.2787 17.055h-11.539l6.2788-17.055h-21.806l-17.394 47.259h21.721l5.9393-16.034h11.539l-5.9394 16.034h21.806l17.479-47.259zm-129.99 0-17.394 47.259h22.909l17.394-47.259zm-45.479 0-16.715 25.369s1.0181-13.319 1.3576-16.46c0.1678-2.4611-0.0851-8.9093-6.0243-8.9093h-26.557l-17.394 47.259h20.788l12.643-34.193-2.6304 34.193h18.412l22.57-33.599-12.473 33.599h20.873l17.394-47.259zm404.05 0-11.963 32.497c0.16869-3.3092 0.84844-16.206 1.1878-23.588 0.16802-3.055-0.50907-5.4312-1.9515-6.958-1.103-1.1034-2.6303-1.7817-4.1576-1.866h-26.642l-17.309 47.174h19.345l12.303-33.514-1.4425 33.514h32.412l17.394-47.259zm-80.012 0-17.394 47.259h22.909l17.394-47.259zm-96.812 12.388h26.133l4.5818-12.388h-47.77l-17.394 47.259h48.278l4.6667-12.726h-26.642l1.9515-5.2623h24.86l4.2424-11.622h-24.86zm65.672-12.388h-22.23l-17.479 47.259h44.715l5.7695-15.695h-22.485z" fill="#27509b" stroke-width=".84848"/><path class="st2" d="m360.63 175.54 0.13543 0.13521 0.54188 1.3546c2.1675 5.5542 4.7413 10.837 7.5861 16.12 1.6256 2.9802 3.3866 5.6896 5.5541 8.2636-2.032 2.9802-3.5221 6.2314-4.3349 9.7534-0.94827 5.2833-0.54185 10.837 1.3547 15.85 0.81279 2.3028 1.7611 4.4703 2.9802 6.5022 0 0.13521-0.13543 0.40652-0.13543 0.54196-1.3547 11.108 3.5221 22.081 12.598 28.719 1.4901 1.0837 2.9802 2.032 4.6058 2.8448 1.4901 4.4703 4.3349 8.3988 8.128 11.244 2.7093 2.1674 5.825 3.9285 9.0762 5.0122v0.13521c3.7931 5.1477 9.2117 8.8053 15.443 10.431 1.6256 0.40631 3.3866 0.81284 5.1477 1.0837 0.13543 0.13521 0.13543 0.27087 0.27093 0.27087 3.5221 3.2511 7.7216 5.6896 12.327 6.9088-0.81279 5.0122-0.27092 10.16 1.3547 14.901h181.12c0-6.0959-1.6256-12.056-4.7413-17.204-0.13543-0.13522-0.13543-0.27087-0.27094-0.40653 2.4384-18.017-9.6181-34.815-27.5-38.337l-2.8448-0.40653h-0.4064c-6.5024-6.2314-14.088-11.244-22.352-14.901 0.13543-0.54175 0.13543-0.94828 0.27093-1.3546l0.4064-0.13522c9.7536-4.1996 15.714-11.515 16.933-20.997 0.94825-7.5859-0.94827-15.308-5.4186-21.539v-0.27087c0.94827-10.024-0.54187-18.83-4.4704-26.145-3.1157-5.8251-7.9925-10.431-13.953-13.276h-0.13543c-1.6256-5.4185-8.5344-9.4825-15.85-9.347-5.825 0.13522-12.192 2.8448-14.63 7.3151-8.8053 3.2513-22.623 11.379-26.822 32.376-12.327 9.0762-15.037 26.416-5.9605 38.743 0.67733 0.94827 1.3547 1.7611 2.1675 2.5739-8.5344 0.13522-17.069 0.94827-25.468 2.7094l-0.27094 0.13521c-8.2634-5.9605-18.559-7.9925-28.448-5.5542-0.40639 0.13521-0.67733 0.27087-1.0837 0.54196-2.8448-0.81283-5.825-1.4902-8.6698-1.7611h-0.54186c-1.3547-4.4705-3.7931-8.5344-7.0442-11.786-0.13544-0.13521-0.54185-0.4063-0.54185-0.54196-0.4064-2.7092-1.0837-5.4185-1.7611-8.1279-1.2192-4.1994-3.5221-7.9925-6.6378-10.973-2.1675-2.1674-4.7413-3.9285-7.5861-5.1477 0.27094-0.81284 0.54185-1.6257 0.81279-2.5739 0-0.27087 0.13544-0.40631 0.13544-0.67718 0-0.13522 1.0837-10.16 2.3029-16.121v-0.27087c3.3866-20.591 3.3866-20.862 3.3866-21.133v-0.13521c0.13543-1.8966-0.54186-3.6574-1.7611-5.0122-1.7611-1.7609-4.064-2.7092-6.6378-2.7092-3.6576 0-7.0442 2.032-8.9408 5.1477-1.0837 1.8965-2.032 4.064-2.7093 6.2314-3.3866-6.6379-7.857-15.308-11.108-21.675l-0.13544-0.27087c-1.4901-2.5739-4.3349-4.064-7.1797-4.064-1.0837 0-2.1675 0.13522-3.1157 0.54175-1.4901-1.3546-3.5221-2.032-5.5541-2.032-1.0837 0-2.032 0.13521-3.1157 0.54196-3.5221 1.2192-5.825 4.6057-5.6896 8.2634-2.7093 0.94827-4.7413 3.3868-5.2832 6.2314-0.27094 1.4902-0.13544 2.9802 0.27092 4.4705 0 0.13522 0.13543 0.27087 0.13543 0.54197l-0.27094 0.4063c-2.1674 2.8448-3.2512 8.6699 4.3349 28.041" fill="#221f20" stroke-width="1.3547"/><g fill="#fff" stroke-width="1.3547"><path class="st1" d="m618.56 315.48h-7.1797c2.3029-2.7094 4.1995-5.8251 5.5541-9.2116 1.0837 2.9802 1.6256 6.0959 1.6256 9.2116m-117.86-77.486c1.4901 0.13521 2.8448 0.40631 4.1995 0.81261 2.7093 1.0839 7.9925 6.0962 10.837 6.5025 0.54187 0 1.7611-0.27087 0.40642-1.2191-0.40642-0.27087-3.6576-3.2511-2.4384-4.7414 0.4064-0.54197 0.94827-0.81284 1.6256-0.6774 4.1995 1.0837 7.5861 1.6257 8.8053 1.7611 0.67731 0.13522 1.2192 0.13522 1.4901-0.13521 0.27092-0.27087 0.13544-0.40631-0.67733-0.6774-6.3669-1.7609-13.547-4.4703-18.423-8.2633-6.6378-4.8768-10.16-13.005-9.2117-21.268 0.81279-5.9605 3.9285-11.244 8.6698-14.766 1.7611-1.0837 3.793-2.032 5.825-2.7092 2.3029-0.81284-1.4901-1.4902-1.7611-1.4902-0.94827-0.13521-1.0837-1.2191-0.27094-4.1994 3.1157-11.108 11.515-19.778 22.487-23.436 1.6256-0.54175 3.3866-0.94827 5.1477-1.2192 2.3029-0.27087 1.3547-1.3546-1.2192-1.6257 0 0-0.81282 0-0.4064-0.54174 0.4064-0.40653 0.81279-0.81283 1.2192-1.0837 2.1674-1.3548 4.7413-2.032 7.3152-2.1676 5.2832-0.13521 9.7536 2.8448 10.295 5.5542 0 0 0.13544 0.54196-0.40639 0.54196-0.94825 0-1.7611 0.40631-0.4064 1.0837 0.27094 0.13521 1.7611 0.54174 3.6576 1.49l0.27094 0.13522c3.9285 1.8965 16.256 9.3473 15.308 30.48 0 0.67739-0.13543 1.2191-0.13543 1.8965s-0.13544 1.2191-0.13544 1.7611c-1.2192-0.13521-1.6256 0.40631-0.81279 1.2191 1.0837 1.2191 2.032 2.4385 2.9802 3.7931 2.8448 4.8768 4.064 10.566 3.3867 16.256-0.81281 6.367-4.7413 11.921-10.295 14.901-4.064 2.3028-8.3989 3.9285-13.005 5.0122-1.2192 0.27087-0.67734 1.8965 5.0122 1.7609 0.54188 0 1.4901 0.13521 1.8965 0.6774 0.67731 1.2191-0.54187 3.6576-2.9803 5.1477-2.1674 1.2194-0.40639 1.4902 2.5738 0.6774 1.2192 0.13521 2.3029 0.4063 3.5221 0.94827 10.295 4.6059 19.372 11.786 26.145 20.726 6.3669 9.0762 8.6698 16.256 6.6378 20.726-2.032 4.4705-7.5861 5.1477-7.7216 5.1477h-0.13543c-22.081 3.3868-60.553-2.5737-86.969-10.431-6.096-1.7611-11.921-3.9285-17.746-6.5025 5.9605-13.276 3.5221-28.719-5.9605-39.556l-0.4064-0.40631c7.1797-1.4902 14.359-2.032 21.81-1.8965"/><path class="st1" d="m608.94 277.41c8.128 12.056 5.825 28.177-5.1477 37.66 0.13543-5.2833-0.81282-11.379-4.6058-16.256 1.6256-1.3546 2.9802-2.9802 3.9285-5.0122 2.9802-6.5022 0.54186-15.443-7.1797-26.551v-0.13522l-0.54185-0.6774c5.5541 2.1676 10.295 5.9607 13.547 10.973m-134.11-33.46c8.8053 10.024 10.295 25.197 3.5221 36.034-7.5861 12.328-21.268 18.288-34.002 15.037-1.7611-0.40631-3.5221-1.0837-5.1477-1.8963 1.2192-0.13521 2.4384-0.40653 3.5221-0.81283 12.463-3.3868 21.81-14.901 23.165-28.719 0.94828-8.5344-1.4901-17.069-6.7733-23.842-1.7611-2.3028-3.9285-4.1994-6.2314-5.8248 8.3989 0.27087 16.391 3.7929 21.945 10.024"/><path class="st1" d="m454.78 243.54c4.3349 5.5542 6.2314 12.598 5.5541 19.643-1.2192 11.379-8.8053 20.862-18.965 23.707-7.5861 2.032-15.85 0.81284-22.487-3.522 13.005-0.40653 24.248-8.9407 28.312-21.133 2.032-6.2314 1.8965-13.005-0.4064-19.101-1.0837-2.8448-2.4384-5.4188-4.3349-7.7216 4.7413 1.4902 9.0762 4.3348 12.327 8.1279"/><path class="st1" d="m435.27 243.95c0.4064-2.3031 0.67733-4.7414 0.54188-7.0442 6.2314 6.0959 8.5343 15.308 5.825 23.571-3.7931 11.786-16.391 19.236-28.041 16.662-5.5541-1.2192-10.566-4.3348-14.088-8.6696 2.1675 0.40631 4.1994 0.67718 6.3669 0.67718 4.064 0 8.128-0.81284 11.921-2.4383 9.2117-4.1996 15.85-12.734 17.475-22.758"/><path class="st1" d="m426.6 224.44c3.2512 5.5542 4.1995 12.056 2.9803 18.288-1.8965 13.276-14.224 22.352-27.5 20.455-4.3349-0.6774-8.3989-2.4383-11.786-5.2831-5.825-4.1994-9.6181-10.702-10.431-17.746 0.54185 0.54174 1.2192 1.0837 1.8965 1.49 4.7413 3.3868 10.431 5.1479 16.256 5.0122 2.5738 0 5.1477-0.27087 7.7216-0.94827 10.702-2.9802 15.85-9.347 18.423-14.224 1.0837-2.1674 1.8965-4.6059 2.4384-7.0442"/><path class="st1" d="m361.04 150.07 0.27094-0.13521c0.13544-0.13521 0.4064-0.27087 0.67733-0.40631h1.0837c0.13544 0 0.4064 0.13522 0.54186 0.13522 1.6256 0.54196 2.9802 2.7094 3.2512 5.6896 0.67733 5.1477 2.4384 10.024 5.2832 14.359 0.4064 0.54197 1.2192 0.6774 1.761 0.27109 0.54188-0.40652 0.67733-1.2191 0.27094-1.7611-2.5738-3.9285-4.1994-8.5344-4.8768-13.276-0.54187-3.9285-2.3029-6.7733-5.0122-7.7216-0.67733-0.27109-1.2192-0.27109-1.8965-0.27109-0.27094-0.67718-0.54188-1.3546-0.67733-2.032-0.27094-1.0837-0.81279-3.2511 1.6256-4.064l0.40642-0.13521h0.27091c1.7611-0.27087 4.064 0.54196 6.3669 8.8053 1.6256 5.2831 4.064 10.431 7.0442 15.172 0.4064 0.54196 1.2192 0.6774 1.7611 0.27109 0.54185-0.40653 0.67733-1.0837 0.40639-1.6257-2.8448-4.4705-5.1477-9.347-6.7733-14.495-0.94824-3.522-2.4384-7.3151-4.7413-9.347-0.27092-0.81284-0.67731-1.7611-0.81279-2.1674-0.4064-1.2194-0.8128-3.9285 1.4901-4.6059 0.40639-0.13522 0.81281-0.27087 1.2192-0.27087 1.4901 0.13521 2.8448 1.2191 3.2512 2.7092 0 0.13522 0.13544 0.27109 0.27092 0.54197l10.431 24.79c0 0.13521 0.13544 0.27087 0.27094 0.40653 0.4064 0.40631 1.2192 0.40631 1.6256-0.13521 0.27094-0.40631 0.4064-0.81262 0.13544-1.2192l-10.024-24.113c0.27093-0.54197 0.67733-0.94827 1.0837-1.2191 0.54188-0.2711 1.0837-0.40653 1.6256-0.40653 0.94825 0 1.761 0.54196 2.3029 1.2191 0 0 13.411 26.416 15.85 31.022-0.81279 1.2191-1.3546 2.4383-1.8965 3.7931-0.13544 0.67718 0.27094 1.2192 0.54187 0.67718 0.81279-1.2191 1.7611-2.4383 2.7093-3.522l0.13544-0.13521c0.67731-1.0839 2.5738-6.367 3.3866-7.9927 0.54185-2.7092 1.6256-5.2831 2.9802-7.7214 0.81279-1.4902 2.4384-2.4385 4.1994-2.4385 1.4901 0 2.7093 0.81284 2.7093 1.6257 0 0.40631-3.2512 20.726-3.2512 20.726-0.81279 4.1994-1.6256 10.295-2.032 13.818 0 0.81283-0.13543 1.7611-0.27094 2.5737v0.2711s0 0.13521-0.13543 0.54174c-0.4064 1.8965-1.0837 3.6576-1.8965 5.4188l1.0837 4.8768c0.40639 2.032 0.81279 4.1994 1.0837 4.8768 0.81279 2.7092-0.27094 4.3348 0.27093 4.8768 0.67734 0.81262 2.4384-2.8448 2.8448-4.7414 0.13544-2.3031-0.13543-4.6059-0.67733-6.7733 2.1675 0.94827 4.064 2.3028 5.6896 3.9285 2.4384 2.3028 4.3349 5.2831 5.1477 8.5344 0.94825 3.1157 1.4901 6.3668 1.8965 9.7534 0.13544 2.5739-0.81279 16.527-17.204 21.133-2.032 0.54174-4.064 0.81283-6.096 0.81283-4.6058 0.13522-9.0762-1.3548-12.869-3.9285-7.9925-5.6896-11.108-18.017-9.4826-24.519 0.67733-2.5739 1.6256-5.0122 3.1157-7.1796 0.67733 0.4063 1.4901 0.81261 2.3029 1.0837l0.40639 2.3028c0 0.27087 1.3547 6.5025 3.7931 8.399 1.3546 0.81261 2.8448 1.2191 4.4704 1.2191 0.67734 0 2.4384-0.13521 2.7093-0.81283 0.13543-0.27087 0-0.54197-0.13544-0.81284-0.27094-0.13521-0.54185-0.40631-0.81279-0.54174-1.2192-0.6774-3.3866-1.7611-3.7931-3.9285-0.27091-1.2194-1.2192-5.4188-1.8965-7.857 2.4384-1.8965 2.7093-4.0642-0.54185-3.3868-1.8965 0.27087-3.6576-0.27087-5.1477-1.6254-6.2315-5.6896-13.005-22.894-14.224-26.01-5.4186-13.818-6.6378-21.268-4.8768-23.3m86.698 151.59c1.2192 0.13521 2.4384 0.13521 3.6576 0.13521 11.921 0 23.571-6.2314 31.022-17.204 6.2314 2.7094 12.598 5.1477 18.965 7.0442 15.308 4.4705 31.022 7.7216 46.871 9.7536 8.9407 1.2191 17.882 1.7611 26.822 1.8965 5.2832 0.13521 10.566-0.27087 15.714-0.94827 1.0837-0.13522 2.032-0.40653 2.9802-0.81284 3.5221 3.7931 4.3349 9.2116 4.064 13.818h-148.2c-2.032-4.064-2.7093-8.9407-1.8965-13.682"/></g><path class="st2" d="m529.42 201.55c0.67733 0.81283 1.4901 1.3546 2.4384 1.7611 0.81279 0.27087 1.7611 0.40631 2.5738 0.54174 0.8128 0.13522 1.4901 0.13522 2.3029 0.13522 3.6576-0.13522 7.0442-5.6896 7.1797-11.244 0.13544-5.0122-0.54187-8.8053-4.1994-10.973-0.4064-0.27109-0.81279-0.40653-1.2192-0.54196-1.6256-0.54174-3.2512-0.6774-4.8768-0.27087-1.8965 0.54174-3.3867 1.7611-4.3349 3.522-0.94827 1.7611-1.6256 3.5222-2.032 5.5542-0.40639 1.8966-0.54185 3.9285-0.27093 5.9605 0.40641 1.8965 1.2192 3.7931 2.4384 5.5542zm-0.67733-8.8053c0.27093-2.3031 1.6256-9.7536 7.4506-9.2118 4.4704 0.40653 5.6896 3.7931 6.096 6.6379v0.40653c0.27094 2.3028-0.13544 4.6057-0.94825 6.6377-0.27094 0.6774-0.67733 1.3548-1.0837 2.032-0.67733 1.4902-2.032 2.4385-3.5221 2.8448h-0.27094c2.3029-1.6254 3.7931-4.1994 3.9285-7.0442 0.40639-4.3348-1.6256-8.1279-4.6058-8.3988-1.4901 0-2.8448 0.67718-3.7931 1.7609 1.3547 0.40652 2.3029 1.7611 1.8965 3.2513-0.27092 0.94827-0.94825 1.6254-1.761 1.8965-0.94827 0-1.7611-0.81284-1.8965-1.6257-0.27092 0.6774-0.4064 1.49-0.4064 2.3028-0.27093 2.3031 0.27094 4.7414 1.6256 6.6379-0.13544-0.13522-0.4064-0.27087-0.54188-0.54197-1.0837-1.49-1.7611-3.1157-1.8965-4.8766-0.27093-0.81284-0.27093-1.7611-0.27093-2.7094zm34.408 21.133c-0.67733-0.13521-0.81279 0.40653-0.54187 0.6774l0.27093 0.27087-0.67733 0.40653c-1.3546 0.67718-2.8448 1.0837-4.4704 1.49-3.793 0.81284-7.5861 0.94827-11.379 0.54197-6.2314-0.54197-12.463-1.8965-18.288-4.335l-1.4901-0.67718-0.81279-0.40652c-0.67733-0.27088-1.3547 0.13521-1.6256 0.81283 0 0.13521 0 0.27087-0.13544 0.40631 0 0.54196 0.27094 1.2194 0.94827 1.3548 1.6256 0.81283 3.2512 1.49 4.8768 2.032 1.3547 0.81284 2.5738 1.7611 3.5221 2.9802 1.2192 1.3546 2.7093 2.5737 4.3349 3.522 3.2512 1.7611 6.9088 2.4385 10.566 1.8965 1.7611-0.27087 3.5221-0.94827 5.1477-1.8965 1.0837-0.67718 2.1675-1.49 3.2512-2.4383 0.67733-0.54196 1.2192-0.94827 1.8965-1.3546 0.4064-0.2711 3.2512-1.3548 4.7413-2.1676 0 0.54197 0 0.94827 0.27094 1.0837 0.27094 0.13521 0.81279-0.67718 0.81279-1.2191 0.13544-0.54174 0-1.0837-0.13543-1.6254 0-0.81283-0.4064-1.2194-1.0837-1.3548zm-13.14 8.1279c-1.6256 0.54196-3.3867 0.6774-5.0122 0.40653-1.6256-0.13522-3.3866-0.54197-4.8768-1.2192-1.6256-0.81283-3.1157-1.8965-4.3349-3.2513 6.096 1.6257 12.327 2.1676 18.694 1.6257-1.4901 1.0837-2.9802 1.8966-4.4704 2.4383zm-23.165-11.921c-0.13544-0.54174-0.81279-0.54174-0.94827-0.54174-0.67731 0-1.2192 0.13521-1.8965 0.4063-1.4901 0.54197-2.4384 1.8966-2.5738 3.3868 0 0.13521 0 0.27087 0.13543 0.40631 0.13544 0.13521 0.4064 0.27087 0.54186 0.27087 0.27093 0 0.54185-0.27087 0.54185-0.54175 0-0.40652 0.27094-0.81283 0.54187-1.2191 0.81279-0.81283 1.8965-1.2194 2.9802-1.3548 0.27094-0.13521 0.81279-0.4063 0.67733-0.81283zm39.962-20.726c-0.4064-1.7609-1.4901-3.3866-3.1157-4.4703-1.3546-0.81284-2.9802-1.2191-4.6058-0.94827-0.4064 0-0.81282 0.13521-1.2192 0.27087-3.9285 1.2191-5.5541 4.7414-6.6378 9.4827-1.2192 5.2831 0.54188 11.514 3.9285 12.463 0.67733 0.13522 1.4901 0.40653 2.1674 0.40653 0.81279 0.13521 1.7611 0.27087 2.5739 0.13521 0.94827-0.13521 1.8965-0.4063 2.7093-1.0837 1.6256-1.3548 2.8448-2.9802 3.5221-5.0122 0.67733-1.7611 1.2192-3.7931 1.2192-5.6896 0-1.7611-0.13543-3.6576-0.54185-5.5542zm-1.4901 8.2636c-0.13544 0.94827-0.4064 1.8965-0.81279 2.7092-0.54188 1.6257-1.6256 3.1159-2.9803 4.1996-0.54186 0.40631-1.0837 0.54175-1.6256 0.67718 2.1674-1.6254 3.5221-4.1994 3.6576-6.9088 0.40639-4.3348-1.6256-8.1279-4.4704-8.3988-1.4901 0-2.8448 0.6774-3.7931 1.7611 1.2192 0.13521 2.032 1.2191 1.8965 2.4383 0.27094 1.2191-0.54185 2.4385-1.761 2.7094-0.94828 0-1.7611-0.67739-1.8966-1.6257-0.27091 0.6774-0.40639 1.4902-0.40639 2.3031-0.4064 2.5737 0.40639 5.1477 2.032 7.0442-1.0837-0.81283-1.8965-2.032-2.1675-3.3868-0.27094-0.67718-0.40639-1.49-0.40639-2.3028-0.27094-2.3028 0-4.6059 0.81279-6.6379l0.13543-0.40631c1.0837-2.7094 2.9803-5.5542 7.3152-4.8768 5.5541 0.94827 4.8768 8.2633 4.4704 10.702z" fill="#221f20" stroke-width="1.3547"/><path d="m763.78 314.99h-471.3l-6.8302 16.214h470.71z" fill="#ffe74b" stroke-width="1.0049"/></g></svg>
