<?xml version="1.0" encoding="utf-8"?>
<!-- Generator: Adobe Illustrator 27.9.0, SVG Export Plug-In . SVG Version: 6.00 Build 0)  -->
<svg version="1.1"
	 id="svg8" xmlns:dc="http://purl.org/dc/elements/1.1/" xmlns:rdf="http://www.w3.org/1999/02/22-rdf-syntax-ns#" xmlns:cc="http://creativecommons.org/ns#" xmlns:svg="http://www.w3.org/2000/svg" xmlns:inkscape="http://www.inkscape.org/namespaces/inkscape" xmlns:sodipodi="http://sodipodi.sourceforge.net/DTD/sodipodi-0.dtd" inkscape:version="0.92.4 (5da689c313, 2019-01-14)" sodipodi:docname="drawing.svg"
	 xmlns="http://www.w3.org/2000/svg" xmlns:xlink="http://www.w3.org/1999/xlink" x="0px" y="0px" viewBox="0 0 200 38.3"
	 style="enable-background:new 0 0 200 38.3;" xml:space="preserve">
<style type="text/css">
	.st0{fill:#0E7391;}
</style>
<sodipodi:namedview  bordercolor="#666666" borderopacity="1" gridtolerance="10" guidetolerance="10" id="namedview2502" inkscape:current-layer="svg8" inkscape:cx="214.1" inkscape:cy="-1.3179792" inkscape:pageopacity="0" inkscape:pageshadow="2" inkscape:window-height="1017" inkscape:window-maximized="1" inkscape:window-width="1920" inkscape:window-x="-8" inkscape:window-y="-8" inkscape:zoom="2.8284271" objecttolerance="10" pagecolor="#ffffff" showgrid="false">
	</sodipodi:namedview>
<g id="layer1" transform="translate(-60.980526,-171.63768)">
	<g id="g21386">
		<g id="g927" transform="matrix(0.22800387,0,0,-0.22800387,42.833303,193.29512)">
			<g>
				<g id="g929">
					<g id="g935" transform="translate(107.8004,79.8807)">
						<path id="path937" class="st0" d="M56.5-20.1c-0.2,0.1-0.4,0.2-0.5,0.2s-0.3,0-0.5-0.1L31.7-31.6c-0.2-0.1-0.2-0.1,0-0.1H80
							c0.2,0,0.2,0.1,0.1,0.1L56.5-20.1z"/>
					</g>
					<g id="g939" transform="translate(107.6239,89.185)">
						<path id="path941" class="st0" d="M56,5.8c-46.3,0-84-37.7-84-84s37.7-84,84-84s84,37.7,84,84S102.3,5.8,56,5.8 M103.3-127
							c0-0.1-0.1-0.2-0.2-0.3H9c-0.1,0-0.3,0.1-0.2,0.3v9.5c0,0.1,0.1,0.2,0.2,0.2h94.2c0.1,0,0.2-0.1,0.2-0.2L103.3-127z
							 M39.9-102.2v47.7h10.8v-47.7h10.5v47.7H72v-47.7h10.8v47.7h10.8v-47.7h4.8v-9.7c0-0.1-0.1-0.2-0.2-0.2H13.8
							c-0.1,0-0.2,0.1-0.3,0.2v9.7h4.8v47.7h10.8v-47.7L39.9-102.2z M106.5-44.5l-3-5.2c-0.1-0.2-0.3-0.3-0.5-0.3H9.1
							c-0.2,0-0.4,0.1-0.5,0.3l-3,5.2c-0.1,0.2,0,0.4,0.1,0.5l50,26.6c0.2,0.1,0.4,0.1,0.6,0l50-26.6
							C106.5-44.1,106.6-44.3,106.5-44.5"/>
					</g>
					<g id="g943" transform="translate(141.0098,58.7449)">
						<path id="path945" class="st0" d="M148.8-78.8c0.8,0.2,2.2,0.5,4,0.7s3.5,0.3,5.1,0.3v58.5c-1.6,0-3.3,0.1-5.1,0.4
							c-1.8,0.2-3.1,0.5-4,0.7v7.9h32.7c3.5,0,6.8-0.3,10-1c3.1-0.6,5.9-1.7,8.2-3.2c2.4-1.5,4.2-3.4,5.6-5.8c1.3-2.4,2-5.4,2-8.9
							c0-4.8-1.3-8.6-3.8-11.4c-2.5-2.8-5.9-4.8-10.1-5.8v-0.2c2.3-0.4,4.5-1.1,6.6-2c2.1-1,3.9-2.2,5.5-3.7s2.8-3.4,3.7-5.5
							c0.9-2.1,1.4-4.5,1.4-7.3c0-3.8-0.7-7.1-2.2-9.8c-1.5-2.7-3.5-4.9-6-6.7c-2.6-1.7-5.7-3-9.2-3.8c-3.6-0.8-7.6-1.2-11.9-1.2
							h-32.4L148.8-78.8L148.8-78.8z M170.6-42.7h9.3c5,0,8.7,1,11,3c2.3,2,3.5,4.9,3.5,8.8c0,7.4-4.7,11.2-14.1,11.2h-9.6
							L170.6-42.7z M170.6-77.2h10.1c5.7,0,9.9,1,12.6,3c2.7,2,4,5.2,4,9.5c0,4.1-1.2,7.3-3.7,9.6c-2.5,2.3-6.6,3.4-12.2,3.4h-10.7
							L170.6-77.2z"/>
					</g>
					<g id="g947" transform="translate(163.1296,56.2805)">
						<path id="path949" class="st0" d="M210.3-85.7c-2.4,0-4.5,0.3-6.5,1s-3.7,1.7-5.2,3s-2.6,2.9-3.4,4.8c-0.8,1.9-1.3,4-1.2,6.5
							c0,3.6,0.8,6.6,2.6,9.1c1.7,2.4,4,4.4,6.8,5.9s6,2.6,9.5,3.2c3.6,0.7,7.2,1,10.8,1h2.1v4.7c0,3.3-0.8,5.8-2.3,7.2
							c-1.5,1.5-4.1,2.2-7.7,2.2c-2.8,0-5.5-0.5-7.8-1.6c-2.4-1.1-4.6-2.5-6.7-4.2l-5.4,7.6c2.4,2.2,5.4,4.1,8.9,5.6
							s7.6,2.3,12.3,2.3c6.9,0,12.2-1.5,15.6-4.6c3.5-3.1,5.2-8.1,5.2-15v-23.3c0-1.1,0-2,0.1-2.9c0-0.9,0.1-1.7,0.2-2.6
							c1.6-0.1,3.1-0.3,4.5-0.3c1.4-0.1,2.6-0.1,3.6-0.1v-8c-1.7-0.1-4.2-0.3-7.6-0.5s-7.1-0.2-11.2-0.2c-0.2,0.8-0.4,1.8-0.6,3
							c-0.2,1.3-0.2,2.7-0.2,4.2h-0.2c-1.5-2.1-3.6-3.9-6.4-5.5C217.2-84.9,214-85.7,210.3-85.7 M213.4-76.5c2.8,0,5.3,0.6,7.3,1.7
							s3.7,2.6,5,4.4v11.6h-2.1c-5.2,0-9.4-0.8-12.7-2.3c-3.2-1.6-4.9-4.3-4.9-8.3c0-2.5,0.8-4.3,2.4-5.4
							C210.1-76,211.7-76.5,213.4-76.5"/>
					</g>
					<g id="g951" transform="translate(174.0624,58.7352)">
						<path id="path953" class="st0" d="M240.7-78.9c0.9,0.2,2.1,0.5,3.8,0.7c1.7,0.2,3.3,0.3,4.8,0.4v37.9
							c-1.8,0.1-3.4,0.3-4.9,0.3c-1.5,0.1-2.7,0.1-3.7,0.1v7.9c1.8,0.2,4.6,0.4,8.4,0.6s8,0.3,12.6,0.3l-0.4-8.7h0.2
							c2.1,2.7,4.5,5,7.3,6.8s6.3,2.6,10.3,2.6c3,0,5.5-0.4,7.6-1.4c2.1-0.9,3.8-2.2,5.1-3.8c1.3-1.6,2.2-3.5,2.8-5.6
							c0.6-2.1,0.9-4.4,0.9-6.9V-78c1.5,0,3.1-0.1,4.8-0.4c1.6-0.3,2.8-0.5,3.6-0.6v-7.9h-28.6v7.9c0.7,0.2,1.9,0.3,3.4,0.6
							c1.5,0.2,3.1,0.4,4.7,0.5v28.2c0,3.1-0.6,5.5-1.9,7.2c-1.3,1.7-3.5,2.5-6.7,2.5c-2.9,0-5.5-0.9-7.7-2.6
							c-2.2-1.8-4.1-3.7-5.6-5.7v-29.6c1.5-0.1,3.1-0.2,4.6-0.5c1.6-0.2,2.7-0.4,3.5-0.6v-7.9h-29L240.7-78.9z"/>
					</g>
					<g id="g955" transform="translate(200.6974,67.365)">
						<path id="path957" class="st0" d="M314.7-54.9c-0.1,0.9-0.2,2-0.2,3.1c-0.1,1-0.1,2-0.1,2.9c-1.9,0.8-4.1,1.1-6.8,1.1
							c-2.5,0-4.7-0.5-6.6-1.5s-3.5-2.4-4.8-4.2c-1.2-1.8-2.2-3.9-2.9-6.3c-0.7-2.4-1-5-1-7.9c0-2.8,0.4-5.3,1-7.7
							c0.7-2.4,1.7-4.5,3-6.2c1.3-1.8,3-3.2,4.9-4.2c2-1,4.2-1.6,6.8-1.6c1.7,0,3.2,0.2,4.7,0.5c1.4,0.3,2.7,0.7,3.8,1.1
							c1.1,0.4,2,0.9,2.9,1.4c0.8,0.5,1.4,0.8,1.9,1.1l4-8.3c-0.6-0.4-1.4-1-2.5-1.5c-1.1-0.6-2.4-1.1-4-1.7s-3.4-1.1-5.4-1.4
							c-2-0.4-4.3-0.6-6.8-0.6c-4.3,0-8.2,0.7-11.6,2.1s-6.2,3.4-8.5,5.9c-2.3,2.5-4.1,5.5-5.3,8.9c-1.3,3.4-1.9,7.2-1.8,11.2
							c0,4.7,0.7,9,2.1,12.7c1.4,3.7,3.4,6.9,6,9.4c2.5,2.6,5.5,4.5,8.9,5.8s7.1,2,11.2,2c4,0,7.4-0.4,10.2-1.4
							c2.8-0.9,4.9-1.9,6.2-2.9v-12L314.7-54.9z"/>
					</g>
					<g id="g959" transform="translate(211.5861,56.261)">
						<path id="path961" class="st0" d="M345-85.7c-4.7,0-8.8,0.8-12.2,2.5c-3.4,1.6-6.2,3.8-8.3,6.5c-2.1,2.7-3.7,5.7-4.7,9.2
							c-1,3.4-1.5,7-1.5,10.5c0,3.4,0.5,6.9,1.5,10.4c1,3.5,2.6,6.7,4.8,9.5c2.1,2.8,4.9,5.1,8.2,6.9c3.3,1.8,7.4,2.7,12.1,2.7
							s8.8-0.8,12.2-2.5c3.4-1.6,6.2-3.8,8.4-6.5c2.2-2.7,3.9-5.7,4.9-9.2c1.1-3.4,1.6-6.9,1.6-10.5c0-3.4-0.5-6.8-1.6-10.3
							c-1.1-3.5-2.7-6.7-4.9-9.6c-2.2-2.9-5-5.2-8.4-7C353.8-84.8,349.7-85.7,345-85.7 M345.2-76.6c2.5,0,4.6,0.5,6.4,1.5
							s3.2,2.4,4.4,4.2c1.1,1.8,2,3.9,2.5,6.3c0.5,2.4,0.8,5,0.8,7.8s-0.3,5.4-0.9,7.8c-0.6,2.4-1.4,4.6-2.6,6.4
							c-1.1,1.8-2.6,3.2-4.4,4.3s-3.9,1.6-6.5,1.6c-2.4,0-4.5-0.5-6.3-1.5c-1.7-1-3.2-2.4-4.3-4.2c-1.1-1.7-1.9-3.8-2.4-6.2
							c-0.5-2.4-0.8-5-0.7-7.7c0-2.8,0.3-5.4,0.8-7.8c0.5-2.4,1.3-4.6,2.4-6.4s2.5-3.3,4.3-4.4C340.5-76,342.7-76.5,345.2-76.6"/>
					</g>
					<g id="g963" transform="translate(226.4609,58.7144)">
						<path id="path965" class="st0" d="M386.3-78.9c0.8,0.2,2.2,0.5,4,0.7s3.5,0.3,5.1,0.3v58.5c-1.6,0-3.3,0.1-5.1,0.4
							c-1.8,0.2-3.1,0.5-4,0.7v7.9h21.2l32.4-45.5c1.8-2.5,3.5-4.9,5-7.2c1.5-2.3,2.5-3.9,2.8-4.7h0.2c-0.1,0.8-0.2,2.1-0.2,4.1
							c-0.1,1.9-0.1,4.4-0.1,7.3v37.1c-1.6,0-3.3,0.1-5,0.4c-1.8,0.2-3.1,0.5-3.9,0.7v7.9h28.9v-7.9c-0.9-0.2-2.2-0.5-3.9-0.7
							c-1.8-0.2-3.4-0.4-4.9-0.4v-67.4h-11.2l-34.3,48c-0.9,1.1-1.7,2.3-2.5,3.5c-0.8,1.2-1.5,2.3-2.1,3.3s-1.2,1.9-1.6,2.7
							c-0.5,0.8-0.7,1.3-0.9,1.6H406c0.2-0.7,0.3-2,0.4-3.9c0.1-2,0.1-3.8,0.1-5.7v-40.6c1.5-0.1,3.2-0.2,5-0.4
							c1.8-0.2,3.1-0.4,4-0.6v-7.9h-29.1L386.3-78.9z"/>
					</g>
					<g id="g967" transform="translate(252.7607,56.2487)">
						<path id="path969" class="st0" d="M459.4-85.8c-2.4,0-4.6,0.3-6.5,1c-2,0.7-3.7,1.7-5.2,3c-1.4,1.3-2.6,2.9-3.4,4.8
							c-0.9,1.9-1.3,4-1.3,6.5c0,3.6,0.9,6.6,2.6,9.1c1.7,2.4,4,4.4,6.8,5.9s6,2.6,9.5,3.2c3.6,0.6,7.2,1,10.8,1h2.1v4.7
							c0,3.3-0.8,5.7-2.3,7.2c-1.5,1.5-4.1,2.2-7.7,2.2c-2.8,0-5.4-0.5-7.8-1.6c-2.4-1.1-4.6-2.5-6.7-4.2l-5.4,7.6
							c2.4,2.2,5.4,4.1,8.9,5.6c3.5,1.5,7.6,2.3,12.3,2.3c6.9,0,12.2-1.5,15.7-4.6c3.5-3.1,5.2-8.1,5.2-15v-23.3c0-1.1,0-2,0.1-2.9
							c0-0.9,0.1-1.7,0.2-2.6c1.6-0.2,3.1-0.3,4.5-0.3c1.4-0.1,2.5-0.1,3.5-0.1v-8c-1.7-0.2-4.2-0.3-7.6-0.5s-7.1-0.2-11.2-0.2
							c-0.2,0.8-0.4,1.8-0.6,3c-0.1,1.3-0.2,2.7-0.2,4.2h-0.2c-1.5-2.1-3.7-3.9-6.4-5.5C466.3-85,463.1-85.8,459.4-85.8 M462.5-76.6
							c2.8,0,5.3,0.6,7.3,1.7s3.7,2.6,5,4.4v11.6h-2.1c-5.2,0-9.4-0.8-12.7-2.3c-3.3-1.6-4.9-4.3-4.9-8.3c0-2.5,0.8-4.3,2.4-5.4
							C459.2-76.1,460.8-76.6,462.5-76.6"/>
					</g>
					<g id="g971" transform="translate(272.1506,67.3528)">
						<path id="path973" class="st0" d="M513.3-54.9c-0.1,1-0.1,2-0.2,3c-0.1,1-0.1,2-0.1,2.9c-1.8,0.7-4.1,1.1-6.8,1.1
							c-2.5,0-4.7-0.5-6.7-1.6c-1.9-1-3.5-2.4-4.8-4.2c-1.2-1.8-2.2-3.9-2.9-6.3c-0.6-2.4-1-5-1-7.8s0.4-5.3,1-7.7
							c0.7-2.4,1.7-4.5,3.1-6.2c1.3-1.8,3-3.1,4.9-4.2c1.9-1,4.2-1.5,6.8-1.5c1.7,0,3.2,0.1,4.6,0.5c1.4,0.3,2.7,0.7,3.8,1.1
							c1.1,0.5,2.1,0.9,2.9,1.4c0.8,0.5,1.4,0.9,1.9,1.1l4-8.3c-0.6-0.4-1.4-1-2.5-1.5c-1.1-0.6-2.4-1.1-4-1.7s-3.4-1.1-5.4-1.4
							c-2-0.4-4.3-0.6-6.8-0.6c-4.3,0-8.2,0.7-11.6,2.1c-3.4,1.4-6.2,3.4-8.5,5.9c-2.3,2.5-4.1,5.5-5.3,8.9
							c-1.2,3.4-1.9,7.2-1.9,11.2c0,4.7,0.7,9,2.1,12.7c1.4,3.7,3.4,6.9,6,9.4c2.5,2.6,5.5,4.5,8.9,5.9c3.4,1.3,7.1,2,11.2,2
							c4,0,7.4-0.5,10.2-1.4s4.9-1.9,6.2-2.9v-12L513.3-54.9z"/>
					</g>
					<g id="g975" transform="translate(276.6365,58.6961)">
						<path id="path977" class="st0" d="M525.8-79c0.8,0.2,2.1,0.4,3.7,0.7c1.7,0.2,3.2,0.3,4.8,0.3v37.9c-1.7,0.2-3.4,0.3-4.9,0.4
							c-1.5,0.1-2.7,0.1-3.6,0.1v7.9c1.8,0.2,4.6,0.4,8.4,0.6c3.9,0.2,8.2,0.3,12.9,0.3l-0.4-9.1v-38.2c1.5,0,3.1-0.1,4.7-0.4
							c1.6-0.3,2.8-0.5,3.7-0.6V-87h-29.2v8H525.8z M540.4-23.9c-2,0-3.7,0.7-5.1,2.1c-1.4,1.4-2.1,3-2.1,5c0,1.9,0.7,3.6,2.1,4.9
							c1.4,1.4,3.1,2.1,5,2.1c2.1,0,3.8-0.7,5.1-2.1s2-3,2-5c0-1.9-0.7-3.6-2-4.9C544.2-23.2,542.5-23.9,540.4-23.9"/>
					</g>
					<g id="g979" transform="translate(292.4735,56.2327)">
						<path id="path981" class="st0" d="M569.8-85.8c-4.7,0-8.8,0.8-12.2,2.5c-3.4,1.6-6.2,3.8-8.3,6.5c-2.1,2.7-3.7,5.7-4.7,9.2
							c-1,3.4-1.5,7-1.5,10.5c0,3.4,0.5,6.9,1.6,10.4c1,3.5,2.6,6.7,4.8,9.5c2.1,2.8,4.9,5.1,8.2,6.9c3.3,1.8,7.4,2.7,12.1,2.7
							c4.7,0,8.8-0.8,12.3-2.5c3.4-1.7,6.2-3.8,8.5-6.5c2.2-2.7,3.9-5.7,4.9-9.2c1.1-3.4,1.6-7,1.6-10.6c0-3.3-0.5-6.8-1.6-10.3
							c-1.1-3.5-2.7-6.7-4.9-9.6c-2.2-2.9-5-5.2-8.5-7C578.6-84.9,574.5-85.8,569.8-85.8 M570-76.6c2.5,0,4.7,0.5,6.4,1.5
							s3.2,2.4,4.3,4.2c1.1,1.7,2,3.8,2.5,6.3c0.5,2.4,0.8,5,0.8,7.8c0,2.8-0.3,5.4-0.9,7.8c-0.6,2.4-1.4,4.6-2.6,6.4
							c-1.1,1.8-2.6,3.2-4.4,4.3c-1.8,1.1-3.9,1.6-6.5,1.6c-2.4,0-4.5-0.5-6.3-1.6c-1.7-1-3.2-2.4-4.3-4.2c-1.1-1.7-1.9-3.8-2.4-6.2
							c-0.5-2.4-0.7-5-0.7-7.7c0-2.8,0.3-5.4,0.8-7.8c0.5-2.5,1.3-4.6,2.5-6.4c1.1-1.8,2.5-3.3,4.3-4.4
							C565.4-76.1,567.5-76.6,570-76.6 M573.9-7.8h16.5l-14.6-13h-10.6L573.9-7.8z"/>
					</g>
					<g id="g983" transform="translate(300.7446,58.6873)">
						<path id="path985" class="st0" d="M592.8-79c0.8,0.2,2.1,0.5,3.8,0.7s3.3,0.3,4.8,0.3v37.9c-1.8,0.2-3.4,0.3-4.9,0.3
							c-1.5,0.1-2.8,0.1-3.7,0.1v7.9c1.7,0.2,4.5,0.4,8.4,0.6c3.8,0.2,8,0.3,12.6,0.3l-0.5-8.7h0.2c2.1,2.7,4.5,5,7.3,6.8
							s6.3,2.6,10.3,2.6c3,0,5.5-0.5,7.6-1.4s3.8-2.2,5.1-3.8c1.3-1.6,2.2-3.5,2.9-5.6c0.6-2.2,0.9-4.4,0.9-6.9v-30.3
							c1.5,0,3.1-0.1,4.8-0.4c1.6-0.3,2.8-0.5,3.6-0.6v-7.9h-28.6v7.9c0.8,0.2,1.9,0.3,3.4,0.6c1.5,0.2,3.1,0.4,4.7,0.5v28.2
							c0,3.1-0.7,5.5-1.9,7.2c-1.3,1.7-3.5,2.5-6.6,2.5c-2.9,0-5.5-0.9-7.7-2.6c-2.2-1.8-4.1-3.7-5.6-5.7v-29.6
							c1.5-0.1,3.1-0.2,4.6-0.5c1.6-0.2,2.7-0.4,3.5-0.6v-7.9h-29L592.8-79L592.8-79z"/>
					</g>
				</g>
			</g>
		</g>
	</g>
</g>
</svg>
