<?xml version="1.0" encoding="utf-8"?>
<!-- Generator: Adobe Illustrator 23.0.4, SVG Export Plug-In . SVG Version: 6.00 Build 0)  -->
<svg version="1.1" id="Layer_1" xmlns="http://www.w3.org/2000/svg" xmlns:xlink="http://www.w3.org/1999/xlink" x="0px" y="0px"
	 viewBox="0 0 185 91" style="enable-background:new 0 0 185 91;" xml:space="preserve">
<style type="text/css">
	.st0{fill:#1B315D;}
	.st1{fill:#71CDE9;}
</style>
<g>
	<path class="st0" d="M35.4,26.5c-1.3-1.9-3-3.2-5-3.9c-1.9-0.6-4.1-0.9-6.5-0.9H5.4l-0.6,0.6v35.1C5,57.6,5.1,57.7,5.4,58h11.1
		c0.2-0.2,0.3-0.3,0.6-0.6v-9.9l2.3,0.4c1.8,0.3,3.6,0.5,5.3,0.5c3.6,0,6.7-0.9,9.1-2.8c2.5-1.9,3.7-5.5,3.7-10.7
		C37.4,31.2,36.8,28.4,35.4,26.5 M24.7,38c-0.3,0.6-0.9,0.8-1.8,0.8h-5.8V31h5.8c0.8,0,1.4,0.3,1.8,0.9s0.6,1.7,0.6,3
		C25.2,36.3,25,37.4,24.7,38"/>
	<path class="st0" d="M46.1,56.8c-2.4-1-4.2-2.9-5.3-5.5s-1.7-6.3-1.7-11.1c0-4.9,0.5-8.7,1.5-11.4c1-2.6,2.6-4.5,5-5.6
		c2.3-1.1,5.6-1.6,9.8-1.6c3.9,0,7,0.4,9.1,1.1c2.1,0.7,3.7,2,4.6,3.8s1.4,4.4,1.4,7.8c0,3.7-1.1,6.3-3.2,7.9c-2,1.6-5,2.4-9,2.4
		h-6.4c0.1,1.1,0.4,2,0.8,2.6s1.1,1,2.2,1.3c1,0.3,2.6,0.4,4.7,0.4h9.7v7.5c-2,0.6-4.1,1.1-6.1,1.5c-2.1,0.4-4.4,0.5-7.1,0.5
		C51.8,58.3,48.5,57.8,46.1,56.8 M56.9,37.1c0.9,0,1.5-0.2,1.9-0.6c0.4-0.4,0.6-1.1,0.6-2.1c0-1.3-0.3-2.2-0.9-2.7
		c-0.6-0.6-1.6-0.8-3-0.8c-1.3,0-2.3,0.4-2.8,1.3c-0.6,0.9-0.9,2.5-0.9,4.9L56.9,37.1L56.9,37.1z"/>
	<path class="st0" d="M111.3,56.5c-2.4-1.2-4.2-3.1-5.3-5.8c-1.1-2.6-1.6-6.2-1.6-10.7c0-4.8,0.5-8.5,1.6-11.2
		c1.1-2.6,2.8-4.5,5.3-5.6c2.4-1.1,5.8-1.6,10.1-1.6s7.7,0.6,10.1,1.7s4.2,3,5.3,5.7c1.1,2.6,1.6,6.3,1.6,11s-0.5,8.3-1.6,10.9
		c-1,2.6-2.8,4.5-5.2,5.6s-5.8,1.7-10.3,1.7C117.1,58.3,113.7,57.7,111.3,56.5 M124,47.7c0.6-0.3,0.9-1.1,1.2-2.2
		c0.2-1.1,0.4-2.9,0.4-5.5c0-2.5-0.1-4.3-0.4-5.4s-0.6-1.9-1.2-2.2s-1.4-0.5-2.6-0.5s-2.1,0.2-2.6,0.5c-0.6,0.3-0.9,1.1-1.2,2.2
		c-0.2,1.1-0.4,2.9-0.4,5.4s0.1,4.3,0.4,5.5c0.2,1.1,0.6,1.9,1.2,2.2s1.4,0.5,2.6,0.5S123.4,48,124,47.7"/>
	<path class="st0" d="M180.2,56.8l-4.1-34c-0.1-0.5-0.5-0.8-0.9-0.8H167c-0.4,0-0.8,0.3-0.9,0.7L160,43.5l-6.1-20.8
		c-0.1-0.4-0.5-0.7-0.9-0.7h-8.3c-0.5,0-0.9,0.4-0.9,0.8l-4,34c0,0.3,0.1,0.5,0.2,0.7s0.4,0.3,0.7,0.3h8.5c0.5,0,0.9-0.4,0.9-0.8
		l1.5-12.8l3.2,13c0.1,0.4,0.5,0.7,0.9,0.7h8.3c0.4,0,0.8-0.3,0.9-0.7l3.3-13.3l1.6,13.2c0.1,0.5,0.5,0.8,0.9,0.8h8.5
		c0.3,0,0.5-0.1,0.7-0.3C180.1,57.3,180.2,57.1,180.2,56.8"/>
	<path class="st0" d="M77.3,54.3c-2.7-2.8-4-7.4-4-13.9c0-4.7,0.6-8.4,1.8-11.1c1.2-2.7,2.9-4.6,5.2-5.8c2.3-1.1,5.2-1.7,8.9-1.7
		c2.4,0,4.5,0.2,6.5,0.5c1.9,0.3,4,0.8,6.4,1.6v7.3h-8.8c-1.9,0-3.4,0.3-4.4,0.8s-1.7,1.4-2.1,2.7s-0.6,3.2-0.6,5.6
		c0,2.6,0.2,4.4,0.6,5.6c0.4,1.2,1.1,2,2.1,2.4s2.5,0.6,4.7,0.6h9V56c-1.7,0.7-3.8,1.3-6.4,1.7s-5,0.7-7.3,0.7
		C83.8,58.4,80,57,77.3,54.3"/>
	<path class="st1" d="M42.3,62c9-0.2,18-0.2,27,0c0.5,3,0.5,6,0,9c-9,0.2-18,0.2-27,0C41.8,68,41.8,65,42.3,62"/>
</g>
</svg>
