<svg width="168" height="47" viewBox="0 0 168 47" fill="none" xmlns="http://www.w3.org/2000/svg">
<path fill-rule="evenodd" clip-rule="evenodd" d="M97.8328 31.5111V17.1622C97.8328 16.8581 97.9408 16.6063 98.1568 16.3907C98.2561 16.2864 98.3761 16.2037 98.5093 16.148C98.6424 16.0923 98.7858 16.0648 98.9302 16.0671H101.08C101.397 16.0671 101.663 16.1712 101.871 16.3907C102.089 16.6063 102.196 16.8581 102.196 17.1615V31.4876C102.196 31.787 102.085 32.0428 101.864 32.2537C101.645 32.4591 101.387 32.5693 101.08 32.5693H98.9302C98.6339 32.5693 98.3714 32.4659 98.1568 32.2685C98.0524 32.1718 97.9696 32.0543 97.9138 31.9237C97.8579 31.7931 97.8304 31.6523 97.8328 31.5104V31.5111ZM105.515 28.3432C105.515 27.8913 105.647 27.5676 105.918 27.3763C106.188 27.1735 106.452 27.0855 106.703 27.0855H108.081C108.777 27.0855 109.3 27.4575 109.667 28.2069C110.028 28.9643 110.842 29.3342 112.106 29.3342L116.158 29.4148C117.515 29.4148 118.192 28.9757 118.192 28.0887C118.192 27.4219 117.367 26.9022 115.702 26.5121C114.969 26.3443 114.147 26.1657 113.256 25.9924C112.356 25.8195 111.466 25.6022 110.587 25.3411C109.705 25.0772 108.893 24.7764 108.151 24.4165C107.439 24.0893 106.82 23.5903 106.351 22.9649C105.894 22.3505 105.667 21.6193 105.667 20.7807C105.667 19.243 106.212 18.0546 107.319 17.222C108.42 16.3914 110.317 15.9731 113.011 15.9731L115.947 16.0469C117.533 16.0469 118.953 16.4431 120.222 17.2576C121.492 18.0687 122.123 19.0725 122.123 20.2892C122.123 20.741 121.993 21.0714 121.723 21.2728C121.45 21.4635 121.198 21.5696 120.949 21.5696H119.57C118.876 21.5696 118.347 21.1902 117.985 20.4335C117.618 19.6748 116.81 19.2988 115.547 19.2988L112.061 19.2289C110.703 19.2289 110.028 19.6694 110.028 20.555C110.028 21.0365 110.454 21.4293 111.314 21.7361C112.175 22.0483 113.219 22.3203 114.441 22.5506C115.66 22.7856 116.889 23.0656 118.124 23.3946C119.356 23.7263 120.403 24.2668 121.26 25.0262C122.123 25.7782 122.553 26.723 122.553 27.8517C122.553 29.396 122.003 30.5845 120.894 31.4184C119.785 32.2483 117.892 32.6606 115.207 32.6606L111.697 32.5928C110.119 32.5928 108.692 32.1926 107.423 31.3788C106.151 30.5724 105.515 29.5605 105.515 28.3432ZM125.862 31.4647V17.179C125.858 17.0334 125.883 16.8884 125.938 16.753C125.992 16.6176 126.073 16.4946 126.176 16.3914C126.273 16.2868 126.391 16.2039 126.523 16.148C126.654 16.0921 126.796 16.0645 126.939 16.0671H131.651C131.948 16.0671 132.231 16.1718 132.503 16.3914C132.773 16.6063 132.955 16.8581 133.046 17.1615L136.459 26.9889L139.872 17.1615C139.962 16.8581 140.145 16.6063 140.421 16.3914C140.687 16.1718 140.969 16.0671 141.271 16.0671H145.979C146.283 16.0671 146.532 16.1718 146.736 16.3914C146.942 16.6063 147.043 16.8654 147.043 17.179V31.4647C147.048 31.6088 147.023 31.7523 146.97 31.8867C146.917 32.021 146.838 32.1434 146.737 32.2465C146.636 32.3497 146.515 32.4315 146.381 32.4871C146.247 32.5426 146.104 32.5708 145.959 32.5699H143.879C143.574 32.5699 143.32 32.4591 143.105 32.2544C142.891 32.0428 142.791 31.7837 142.791 31.4647V20.2186L138.704 31.5346C138.601 31.8146 138.407 32.061 138.138 32.2685C137.872 32.4659 137.585 32.5699 137.28 32.5699H135.627C135.325 32.5699 135.043 32.4659 134.777 32.2685C134.524 32.0779 134.326 31.8248 134.202 31.5346L130.13 20.2186V31.4647C130.13 31.7837 130.024 32.0428 129.816 32.2544C129.6 32.4591 129.347 32.5699 129.046 32.5699H126.962C126.663 32.5699 126.404 32.4591 126.186 32.2544C126.08 32.1519 125.997 32.0289 125.941 31.8931C125.885 31.7572 125.858 31.6114 125.862 31.4647ZM67.664 16.2188H58.834C58.537 16.2188 58.2806 16.3209 58.0734 16.5431C57.9718 16.6438 57.8914 16.7637 57.8371 16.8957C57.7827 17.0278 57.7554 17.1693 57.7569 17.312V31.6373C57.7569 31.9394 57.8662 32.1993 58.0808 32.4095C58.2981 32.6189 58.5566 32.7203 58.861 32.7203H61.0347C61.3351 32.7203 61.5908 32.6189 61.8007 32.4095C62.0106 32.1993 62.1213 31.9394 62.1213 31.6373V19.4774H66.3392C67.6357 19.4774 68.6237 19.6922 69.2979 20.128C69.9633 20.555 70.3014 21.0526 70.3014 22.2867C70.3014 23.5316 69.964 24.3655 69.2979 24.804C68.6237 25.2357 67.6357 25.4472 66.3392 25.4472C66.3392 25.4472 64.4402 25.2914 64.4402 27.0043V28.7084H67.664C72.3294 28.7084 74.6651 26.5705 74.6651 22.2867C74.6651 18.0143 72.3301 16.2188 67.664 16.2188ZM159.385 25.3203C159.385 25.3203 157.481 25.135 157.481 26.8371V28.5627H163.403V31.4882C163.403 31.7984 163.503 32.061 163.71 32.2691C163.912 32.4665 164.171 32.5699 164.49 32.5699H166.663C166.966 32.5699 167.226 32.4665 167.444 32.2691C167.657 32.061 167.766 31.8092 167.766 31.5104V17.134C167.766 16.8507 167.668 16.6069 167.482 16.3921C167.397 16.2881 167.288 16.205 167.166 16.1489C167.043 16.0928 166.909 16.0653 166.774 16.0684H160.535C156.2 16.0745 153.64 17.5725 152.852 20.5557L149.943 31.5117C149.923 31.6084 149.913 31.7259 149.907 31.8589C149.903 31.9858 149.967 32.1389 150.096 32.3108C150.231 32.4907 150.442 32.5706 150.746 32.5706H153.025C153.329 32.5706 153.614 32.4672 153.885 32.2698C154.143 32.0763 154.326 31.8006 154.404 31.4889L155.181 28.5876L156.034 25.327L157.052 21.6361C157.247 20.9257 157.615 20.3711 158.169 19.9541C158.721 19.5311 159.366 19.329 160.106 19.329H163.403V25.3217H159.385V25.3203ZM94.779 31.4876L92.6714 28.1579C92.168 27.3823 91.7117 26.7847 91.3217 26.3725C90.9275 25.9589 90.497 25.6681 90.0367 25.5063C92.9454 24.9315 94.3977 23.5309 94.3977 21.3051C94.3977 19.6983 93.8302 18.4245 92.7038 17.4832C91.57 16.5364 90.1258 16.0671 88.3576 16.0671H78.8116C78.5146 16.0671 78.2582 16.1712 78.051 16.3914C77.8478 16.6063 77.7399 16.8581 77.7399 17.1615V31.4876C77.7399 31.787 77.8478 32.0428 78.0618 32.2544C78.2777 32.4591 78.5376 32.5699 78.8412 32.5699H81.0157C81.1582 32.571 81.2995 32.5436 81.4311 32.4894C81.5628 32.4352 81.6822 32.3553 81.7823 32.2544C81.9916 32.0428 82.1016 31.787 82.1016 31.4876V19.3283H87.0281C87.8231 19.3283 88.5236 19.4774 89.1283 19.793C89.7337 20.1092 90.0374 20.6128 90.0374 21.3051C90.0374 21.9906 89.7337 22.4942 89.1283 22.8098C88.5236 23.1253 87.8231 23.2865 87.0281 23.2865H85.0103V26.5417C86.1204 26.5779 87.0767 27.1963 87.8602 28.4244L89.8302 31.4876C90.0124 31.787 90.2817 32.0428 90.6353 32.2544C90.9876 32.4591 91.3055 32.5699 91.5984 32.5699H94.3721C94.7689 32.5699 94.966 32.4095 94.966 32.0778C94.966 31.8978 94.9052 31.7044 94.7804 31.4876" fill="#1E4384"/>
<path fill-rule="evenodd" clip-rule="evenodd" d="M89.4768 23.2858H85.4566C85.4566 23.2858 83.5562 23.0998 83.5562 24.8107V26.537H89.4768V23.2858ZM99.3009 45.2395H98.5039V41.7883C98.5039 41.4995 98.516 41.2377 98.5343 40.9731C99.0323 40.7428 99.7706 40.579 100.452 40.579C101.008 40.579 101.384 40.7025 101.626 40.908C102.131 40.6917 102.675 40.5798 103.225 40.579C104.638 40.579 104.844 41.3545 104.844 42.2683V45.2395H104.055V42.3785C104.055 41.5895 103.861 41.2283 103.011 41.2283C102.732 41.2283 102.31 41.3008 101.978 41.4807C102.055 41.7178 102.076 41.9883 102.076 42.2683V45.2395H101.273V42.3785C101.273 41.5895 101.088 41.2283 100.231 41.2283C99.9677 41.2283 99.554 41.3088 99.3252 41.4116C99.3016 41.6143 99.3016 41.8695 99.3016 42.0844V45.2395H99.3009ZM108.4 42.7712C108.858 42.751 109.315 42.7151 109.77 42.6638C109.781 42.5785 109.786 42.4597 109.786 42.3852C109.786 41.6378 109.474 41.198 108.58 41.198C107.505 41.198 107.316 41.8024 107.316 42.8196L108.4 42.7719V42.7712ZM106.541 42.9438C106.541 41.2733 107.053 40.5783 108.579 40.5783C110.192 40.5783 110.587 41.4176 110.587 42.7384C110.587 42.8545 110.587 42.9995 110.57 43.1197C110.04 43.2184 108.942 43.3212 108.3 43.348L107.333 43.3917C107.395 44.3042 107.768 44.6607 108.721 44.6607C109.335 44.6607 109.897 44.5989 110.368 44.5398L110.444 45.1394C109.927 45.2247 109.361 45.3086 108.476 45.3086C106.943 45.3086 106.541 44.3042 106.541 42.9438ZM114.218 41.2101C112.949 41.2101 112.825 41.8232 112.825 42.9438C112.825 44 113.011 44.6748 114.134 44.6748C114.465 44.6748 114.87 44.6197 115.129 44.4982C115.145 44.2901 115.15 44.0282 115.15 43.8248V41.3699C114.849 41.2693 114.535 41.2154 114.218 41.2101H114.218ZM115.15 38.8581H115.94V44.1047C115.94 44.3868 115.934 44.6547 115.912 44.9199C115.404 45.1992 114.731 45.3086 114.133 45.3086C112.644 45.3086 112.021 44.7446 112.021 42.9438C112.021 41.1766 112.603 40.579 113.999 40.579C114.384 40.579 114.78 40.6327 115.15 40.7287V38.8581ZM117.778 45.2395H118.583V40.6407H117.778V45.2402V45.2395ZM117.696 39.3267C117.696 38.9373 117.805 38.8057 118.178 38.8057C118.549 38.8057 118.66 38.9366 118.66 39.3267C118.66 39.7135 118.556 39.8491 118.178 39.8491C117.803 39.8491 117.696 39.7135 117.696 39.3267ZM123.544 42.9438C123.544 41.6231 123.26 41.2283 122.3 41.2283C121.356 41.2283 121.052 41.5673 121.052 42.9438C121.052 44.3136 121.356 44.6614 122.3 44.6614C123.253 44.6614 123.544 44.2605 123.544 42.9438ZM120.256 42.9438C120.256 41.2182 120.797 40.579 122.3 40.579C123.803 40.579 124.341 41.2437 124.341 42.9438C124.341 44.6338 123.803 45.3086 122.3 45.3086C120.797 45.3086 120.255 44.6614 120.255 42.9438H120.256ZM126.64 41.7883C126.64 42.3395 127.153 42.4194 127.685 42.5873C128.551 42.8585 129.129 43.062 129.129 43.9832C129.129 45.0193 128.355 45.3086 127.346 45.3086C126.831 45.3055 126.317 45.2474 125.814 45.1354L125.896 44.5331C126.259 44.5989 126.731 44.6493 127.1 44.6493C127.561 44.6493 128.316 44.6547 128.316 44.0242C128.316 43.4588 127.878 43.3917 127.292 43.2137C126.56 42.9928 125.841 42.8129 125.841 41.844C125.841 40.8623 126.531 40.5783 127.454 40.5783C128.065 40.5783 128.504 40.6327 129.026 40.7421L128.948 41.3364C128.566 41.2618 128.178 41.2221 127.789 41.2175C127.336 41.2175 126.64 41.2323 126.64 41.7883ZM135.533 41.2101C134.273 41.2101 134.137 41.8232 134.137 42.9438C134.137 44 134.331 44.6748 135.457 44.6748C135.789 44.6748 136.186 44.6197 136.445 44.4982C136.459 44.2901 136.472 44.0282 136.472 43.8248V41.3699C136.169 41.2701 135.853 41.2162 135.534 41.2101H135.533ZM136.472 38.8581H137.263V44.1047C137.263 44.3868 137.254 44.6547 137.233 44.9199C136.721 45.1992 136.052 45.3086 135.458 45.3086C133.961 45.3086 133.339 44.7446 133.339 42.9438C133.339 41.1766 133.923 40.579 135.315 40.579C135.707 40.579 136.107 40.6327 136.472 40.7287V38.8581ZM140.811 42.7712C141.27 42.7509 141.729 42.7151 142.186 42.6638C142.192 42.5785 142.197 42.4597 142.197 42.3852C142.197 41.6378 141.889 41.198 140.993 41.198C139.915 41.198 139.727 41.8024 139.727 42.8196L140.811 42.7719V42.7712ZM138.955 42.9438C138.955 41.2733 139.464 40.5783 140.993 40.5783C142.601 40.5783 142.996 41.4176 142.996 42.7384C142.996 42.8545 142.991 42.9995 142.981 43.1197C142.451 43.2184 141.357 43.3212 140.708 43.348L139.744 43.3917C139.816 44.3042 140.183 44.6607 141.132 44.6607C141.744 44.6607 142.308 44.5989 142.78 44.5398L142.849 45.1394C142.334 45.2247 141.771 45.3086 140.887 45.3086C139.353 45.3086 138.955 44.3042 138.955 42.9438ZM149.239 44.6748C150.501 44.6748 150.636 44.0631 150.636 42.9438C150.636 41.887 150.441 41.2101 149.312 41.2101C148.98 41.2101 148.583 41.2672 148.327 41.3881C148.307 41.5976 148.297 41.8581 148.297 42.0629V44.5163C148.563 44.6077 148.942 44.6748 149.239 44.6748ZM148.297 46.9356H147.505V41.7815C147.505 41.4928 147.521 41.2323 147.539 40.9637C148.051 40.6884 148.721 40.5783 149.312 40.5783C150.808 40.5783 151.433 41.1423 151.433 42.9438C151.433 44.7084 150.848 45.3086 149.453 45.3086C149.063 45.3025 148.675 45.2521 148.297 45.1582V46.9356ZM154.742 44.6889C155.102 44.6889 155.519 44.6486 155.865 44.509C155.879 44.3042 155.886 44.0436 155.886 43.8375V42.8941C155.416 42.8995 154.798 42.9163 154.36 43.0042C153.858 43.1137 153.654 43.2997 153.654 43.8838C153.654 44.5392 154.003 44.6896 154.742 44.6896V44.6889ZM153.115 40.7421C153.692 40.6359 154.276 40.581 154.862 40.5783C155.865 40.5783 156.665 40.8469 156.665 42.0024V44.1041C156.665 44.3868 156.656 44.6547 156.635 44.9199C156.1 45.1992 155.435 45.3093 154.642 45.3093C153.395 45.3093 152.867 44.8742 152.867 43.9067C152.867 43.1036 153.211 42.5987 154.067 42.4671C154.608 42.3845 155.243 42.3664 155.886 42.3395V42.2281C155.886 41.5338 155.616 41.2175 154.76 41.2175C154.207 41.2175 153.661 41.278 153.179 41.3431L153.115 40.7421ZM159.098 42.8941C159.098 43.9886 159.244 44.5727 160.487 44.5727C160.791 44.5727 161.165 44.5043 161.424 44.4143V42.0629C161.424 41.8574 161.415 41.5969 161.403 41.3881C161.137 41.2672 160.739 41.2095 160.414 41.2095C159.302 41.2095 159.098 41.8695 159.098 42.8948V42.8941ZM158.673 46.2299C159.161 46.299 159.751 46.3689 160.293 46.3689C161.157 46.3689 161.424 46.0493 161.424 45.3483V45.0542C161.047 45.1456 160.66 45.1945 160.272 45.1999C158.891 45.1999 158.294 44.6338 158.294 42.8948C158.294 41.1329 158.94 40.5783 160.414 40.5783C161.005 40.5783 161.675 40.6891 162.186 40.9637C162.208 41.2323 162.218 41.4921 162.218 41.7815V45.5739C162.218 46.7395 161.408 47 160.414 47C159.745 47 159.118 46.9087 158.605 46.8255L158.673 46.2292V46.2299ZM167.207 42.9438C167.207 41.6231 166.916 41.2283 165.955 41.2283C165.008 41.2283 164.715 41.5673 164.715 42.9438C164.715 44.3136 165.008 44.6614 165.955 44.6614C166.911 44.6614 167.206 44.2605 167.206 42.9438H167.207ZM163.913 42.9438C163.913 41.2182 164.459 40.579 165.955 40.579C167.465 40.579 168 41.2437 168 42.9438C168 44.6338 167.465 45.3086 165.955 45.3086C164.459 45.3086 163.913 44.6614 163.913 42.9438Z" fill="#1E4384"/>
<path fill-rule="evenodd" clip-rule="evenodd" d="M0 12.315L7.34329 16.527L21.4414 8.4307V0L0 12.315Z" fill="#20BABB"/>
<path fill-rule="evenodd" clip-rule="evenodd" d="M21.4277 0.0105896L21.4412 8.44542L35.5454 16.5277L42.8819 12.3016L21.4277 0.0105896Z" fill="#1E4384"/>
<path fill-rule="evenodd" clip-rule="evenodd" d="M0.00723699 12.3089L7.34713 16.5276L7.34308 32.7203L0.000488281 36.9424L0.00723699 12.3089Z" fill="#F8B518"/>
<path fill-rule="evenodd" clip-rule="evenodd" d="M21.4414 8.37759V24.6247L35.5287 32.7204V16.5277L21.4414 8.37759Z" fill="#FCDA00"/>
<path fill-rule="evenodd" clip-rule="evenodd" d="M7.32373 32.7203L21.4407 24.6247L35.528 32.7203L21.434 40.8126L7.32373 32.7203Z" fill="#EF4161"/>
</svg>
