<?xml version="1.0" encoding="utf-8"?>
<!-- Generator: Adobe Illustrator 27.9.0, SVG Export Plug-In . SVG Version: 6.00 Build 0)  -->
<svg version="1.1" id="Layer_1" xmlns="http://www.w3.org/2000/svg" xmlns:xlink="http://www.w3.org/1999/xlink" x="0px" y="0px"
	 viewBox="0 0 833.8 332.4" style="enable-background:new 0 0 833.8 332.4;" xml:space="preserve">
<style type="text/css">
	.st0{fill:#E42313;}
	.st1{fill:#464142;}
	.st2{fill:#8D173C;}
</style>
<g>
	<path class="st0" d="M612.8,3.6c15.1,39.2,32.4,118.5-8.1,205.7c-0.5,1.1,1,2.1,2.5,1.1c48.6-31.8,91-92.9,105-142.8
		C663.8,42.9,634.6,17.3,617,0.9C614.7-1.4,611.8,1.1,612.8,3.6"/>
	<path class="st1" d="M37.4,277.4c-13.8-4.8-17.9-7-17.9-12.9c0-5.4,5.8-9.4,13.6-9.4c7.3,0,14.9,2.1,23.3,6.5
		c0.1,0.1,0.3,0.1,0.5,0.1c0.2,0,0.4,0,0.5-0.1c0.3-0.1,0.5-0.4,0.6-0.8l2.2-14.4c0.1-0.5-0.2-0.9-0.6-1.1c-7.6-3.4-16.9-5.3-26-5.3
		c-18,0-30.6,10.9-30.6,26.4c0,14.3,9.6,20.3,28.5,26.9c12.5,4.3,16.7,6.8,16.7,13.4c0,6.7-6.3,11-16.1,11c-8.1,0-19.2-3-28.2-7.7
		c-0.2-0.1-0.3-0.1-0.5-0.1c-0.2,0-0.3,0-0.5,0.1c-0.3,0.2-0.5,0.5-0.6,0.8L0,324.7c-0.1,0.5,0.2,0.9,0.6,1.1
		c10.2,4.3,21.1,6.7,30.6,6.7c20,0,33.4-11.2,33.4-27.8C64.6,289.7,55.1,283.5,37.4,277.4"/>
	<path class="st1" d="M154.9,241.1h-15.8c-0.6,0-1,0.5-1,1v53.5c0,14.3-6.7,21.9-19.5,21.9c-12.4,0-19.3-7.9-19.3-22.3v-53.2
		c0-0.6-0.5-1-1.1-1H82.6c-0.6,0-1,0.5-1,1V296c0,23.2,13.8,37,36.8,37c23.5,0,37.6-14.1,37.6-37.7v-53.2
		C156,241.6,155.5,241.1,154.9,241.1"/>
	<path class="st1" d="M207.7,282.5h-10.1v-26.1H208c7.6,0,16.7,2.3,16.7,13C224.7,278.2,219.2,282.5,207.7,282.5 M209.6,241.1h-28.7
		c-0.6,0-1,0.5-1,1v88.1c0,0.6,0.4,1.1,1,1.1h15.7c0.6,0,1-0.5,1-1.1v-32.7h10.1c21.9,0,34.4-10.4,34.4-28.5
		C242.1,251.8,229.7,241.1,209.6,241.1"/>
	<path class="st1" d="M316.5,315.5h-39.3v-23.2h32.5c0.3,0,0.6-0.1,0.8-0.3c0.2-0.3,0.3-0.6,0.2-0.9l-2.2-13.7
		c-0.1-0.5-0.5-0.9-1.1-0.9h-30.2v-19.6h38.1c0.6,0,1-0.5,1-1.1v-13.7c0-0.6-0.5-1-1-1h-54.8c-0.6,0-1,0.5-1,1v88.1
		c0,0.6,0.5,1.1,1,1.1h56c0.6,0,1-0.5,1-1.1v-13.7C317.5,316,317.1,315.5,316.5,315.5"/>
	<path class="st1" d="M381.5,269.5c0,8.7-5.9,13.6-16.7,13.6h-10.4v-26.2h10.4C372.4,256.8,381.5,259,381.5,269.5 M381.4,294.8
		c11.5-4.4,17.8-13.4,17.8-25.5c0-17.7-12.8-28.2-34.2-28.2h-27.3c-0.6,0-1,0.5-1,1v88.1c0,0.6,0.4,1.1,1,1.1h15.7
		c0.6,0,1-0.5,1-1.1v-33h8l24.3,34.7c0.2,0.3,0.5,0.4,0.9,0.4c0,0,0.1,0,0.2,0l16.2-3.7c0.3-0.1,0.6-0.3,0.7-0.6
		c0.1-0.4,0.1-0.7-0.1-1L381.4,294.8z"/>
	<path class="st1" d="M493.9,241.2h-15.8c-0.5,0-0.9,0.3-1,0.7l-24.7,66l-24.3-66c-0.1-0.4-0.6-0.7-1-0.7H410
		c-0.3,0.1-0.6,0.3-0.7,0.5c-0.1,0.3-0.2,0.6-0.1,0.9l34.4,88.1c0.2,0.4,0.5,0.6,0.9,0.6h14.5c0.4,0,0.8-0.2,0.9-0.6l34.9-88
		c0.1-0.3,0.1-0.7-0.1-1C494.6,241.4,494.3,241.2,493.9,241.2"/>
	<path class="st1" d="M528.1,241.1h-15.8c-0.6,0-1.1,0.5-1.1,1v88.1c0,0.6,0.5,1.1,1.1,1.1h15.8c0.6,0,1.1-0.5,1.1-1.1v-88.1
		C529.2,241.6,528.7,241.1,528.1,241.1"/>
	<path class="st1" d="M614.9,315.5h-39.3v-23.2h32.5c0.3,0,0.6-0.1,0.8-0.3c0.2-0.3,0.3-0.6,0.2-0.9l-2.3-13.7
		c-0.1-0.5-0.5-0.9-1-0.9h-30.3v-19.6h38c0.6,0,1.1-0.5,1.1-1.1v-13.7c0-0.6-0.5-1-1.1-1h-54.7c-0.6,0-1,0.5-1,1v88.1
		c0,0.6,0.5,1.1,1,1.1h56c0.6,0,1-0.5,1-1.1v-13.7C615.9,316,615.4,315.5,614.9,315.5"/>
	<path class="st1" d="M758,315.7h-32.4v-73.5c0-0.6-0.5-1-1-1H709c-0.6,0-1,0.5-1,1v88.1c0,0.6,0.5,1.1,1,1.1h51.3
		c0.3,0,0.6-0.1,0.8-0.4c0.2-0.2,0.3-0.5,0.2-0.8l-2.3-13.6C758.9,316.1,758.5,315.7,758,315.7"/>
	<path class="st1" d="M832.8,315.5h-39.3v-23.2H826c0.3,0,0.6-0.1,0.8-0.3c0.2-0.3,0.3-0.6,0.2-0.9l-2.3-13.7
		c-0.1-0.5-0.5-0.9-1-0.9h-30.2v-19.6h38.1c0.6,0,1-0.5,1-1.1v-13.7c0-0.6-0.5-1-1-1h-54.7c-0.6,0-1,0.5-1,1v88.1
		c0,0.6,0.4,1.1,1,1.1h56c0.6,0,1-0.5,1-1.1v-13.7C833.8,316,833.3,315.5,832.8,315.5"/>
	<path class="st2" d="M831.8,106.4c-40.3-6.3-79.5-19.5-105-31.7c-14.8,38.8-43.4,80.3-73.2,108.9c-1.6,1.4-0.3,3.8,2.3,1.9
		c63.8-44.2,130.4-65.4,176-74.2C834.4,110.8,834.4,107.1,831.8,106.4"/>
	<path class="st1" d="M689.2,315.7h-32.3v-73.5c0-0.6-0.4-1-1-1h-15.6c-0.6,0-1,0.5-1,1v88.1c0,0.6,0.5,1.1,1,1.1h51.3
		c0.3,0,0.6-0.1,0.8-0.4c0.2-0.2,0.3-0.5,0.2-0.8l-2.3-13.6C690.2,316.1,689.7,315.7,689.2,315.7"/>
</g>
</svg>
