<?xml version="1.0" encoding="utf-8"?>
<!-- Generator: Adobe Illustrator 25.0.0, SVG Export Plug-In . SVG Version: 6.00 Build 0)  -->
<svg version="1.1" id="Capa_1" xmlns="http://www.w3.org/2000/svg" xmlns:xlink="http://www.w3.org/1999/xlink" x="0px" y="0px"
	 viewBox="0 0 193.1 86.4" style="enable-background:new 0 0 193.1 86.4;" xml:space="preserve">
<style type="text/css">
	.st0{fill:#ed1c24;}
	.st1{fill:#0047ba;}
</style>
<path class="st0" d="M46.1,85.7l0.2-0.1L96,3.2c0.4-0.7,0.3-1.6-0.1-2.3c-0.5-0.6-1.3-1-2.2-0.9h-9.9c-3.1,0-3.8,1.5-5.3,3.7
	L43.3,60.8l-1.8,2.5c0-0.8-25.3-28-25.3-28c-3-3.3-4.5-3.2-6.6-3.2H1.5c-0.8,0-1.5,0.8-1.5,1.6c0,0,0,0,0,0c0,0.6,0.2,0.9,0.8,1.4
	L46.1,85.7z"/>
<rect x="64.4" y="74.5" class="st0" width="128.7" height="0.6"/>
<path class="st1" d="M145.9,32.4l-14.2,35.7c-0.2,0.3-0.1,0.7,0.1,1c0.2,0.3,0.6,0.4,0.9,0.4h4.5c1.1,0.1,2.1-0.6,2.4-1.6l4.2-10.9
	l0.1-0.3l0.2,0.4l4.7,10.6c0.4,1,1.4,1.7,2.4,1.8h7.9c0.4,0,0.8-0.2,1-0.5c0.2-0.4,0.2-0.8,0-1.2L145.9,32.4"/>
<path class="st1" d="M96.4,32.4h-8.9c-1,0-1.8,0.9-1.8,1.9v33.5c0,0.5,0.2,0.9,0.5,1.3c0.3,0.3,0.8,0.5,1.2,0.5h7.2
	c1,0,1.8-0.8,1.8-1.8c0,0,0,0,0,0L96.4,32.4"/>
<path class="st1" d="M130.8,32.4H104c-1,0-1.8,0.9-1.7,1.8c0,0,0,0,0,0v2.3c0,0.5,0.2,0.9,0.5,1.3c0.3,0.3,0.7,0.5,1.2,0.5h7.4v29.4
	c0,0.5,0.1,0.9,0.4,1.3c0.3,0.3,0.7,0.5,1.2,0.5h7c1,0,1.8-0.9,1.7-1.8V38.3h7.4c1,0,1.8-0.9,1.7-1.8V32.4"/>
<path class="st1" d="M178.6,32.4h-8.8c-1,0-1.8,0.9-1.8,1.8v33.5c0,0.5,0.2,0.9,0.5,1.3c0.3,0.3,0.7,0.5,1.2,0.5h21.7
	c1,0,1.8-0.9,1.8-1.8v-2.3c0-0.5-0.2-0.9-0.5-1.3c-0.3-0.3-0.7-0.5-1.2-0.5h-9.5h-3.3v-0.2L178.6,32.4"/>
<path class="st1" d="M24,29.6c0-7.4,6-13.3,13.4-13.3s13.3,6,13.3,13.4c0,7.3-6,13.3-13.3,13.3C30,43,24,37,24,29.6
	C24,29.6,24,29.6,24,29.6z"/>
<path class="st1" d="M86,84.4h0.8c0,0.3,0.1,0.7,0.5,0.7s0.4-0.3,0.4-0.5c0-0.3-0.2-0.6-0.5-0.8l-0.5-0.5c-0.4-0.3-0.7-0.8-0.7-1.4
	c0-0.7,0.5-1.2,1.1-1.3c0.1,0,0.1,0,0.2,0c0.6,0,1.2,0.3,1.2,1.4h-0.8c0-0.4-0.2-0.7-0.5-0.7s-0.4,0.2-0.4,0.5s0.3,0.5,0.5,0.8
	l0.5,0.5c0.4,0.4,0.7,0.9,0.7,1.5c0,0.7-0.5,1.3-1.2,1.3c0,0-0.1,0-0.1,0c-0.7,0-1.3-0.6-1.3-1.3C86,84.5,86,84.5,86,84.4z"/>
<path class="st1" d="M91.8,84.5v-3.8h0.9v3.8c0,0.4,0.2,0.6,0.5,0.6s0.5-0.2,0.5-0.5v-3.8h0.9v3.8c0,0.7-0.5,1.3-1.2,1.3
	c-0.1,0-0.1,0-0.2,0c-0.7,0.1-1.3-0.4-1.3-1C91.8,84.7,91.8,84.6,91.8,84.5z"/>
<path class="st1" d="M97.9,80.7h1.4c0.8,0,1.2,0.6,1.2,1.5s-0.4,1.6-1.3,1.6h-0.5v1.9h-0.9V80.7z M99.2,83.1c0.3,0,0.5-0.3,0.5-0.9
	s-0.1-0.8-0.5-0.8h-0.4v1.7H99.2z"/>
<path class="st1" d="M103.8,80.7h2.3v0.8h-1.4v1.3h1.1v0.8h-1.1V85h1.4v0.8h-2.3L103.8,80.7z"/>
<path class="st1" d="M109.4,80.7h1.4c0.8,0,1.3,0.5,1.3,1.5c0,0.7-0.2,1.2-0.6,1.3l0.7,2.3h-0.9l-0.6-2.1h-0.4v2.1h-0.9V80.7z
	 M110.7,83c0.3,0,0.5-0.2,0.5-0.8s-0.2-0.8-0.5-0.8h-0.4V83H110.7z"/>
<path class="st1" d="M115.6,77.7h1.8l1,3.3l0,0l1-3.3h1.6v8h-1.3v-5.8l0,0l-1,3.4h-1l-1-3.4l0,0v5.8h-1.3L115.6,77.7z"/>
<path class="st1" d="M127.7,77.7h1.9l1.6,8h-1.4l-0.4-2h-1.7l-0.4,2H126L127.7,77.7z M129.1,82.7l-0.6-3.3l0,0l-0.6,3.3H129.1z"/>
<path class="st1" d="M136.9,82.5l-1.6-4.8h1.5l1,3.1l0.9-3.1h1.3l-1.6,4.8v3.2h-1.4L136.9,82.5z"/>
<path class="st1" d="M144.5,83.8v-4c-0.1-1.1,0.8-2.1,1.9-2.1c0.1,0,0.2,0,0.4,0c1.1-0.1,2.1,0.6,2.2,1.7c0,0.1,0,0.2,0,0.3v4
	c0.1,1.1-0.7,2.1-1.8,2.2c-0.1,0-0.3,0-0.4,0c-1.1,0.1-2.1-0.6-2.2-1.7C144.5,84,144.5,83.9,144.5,83.8z M147.5,83.8v-4.1
	c0-0.4-0.3-0.8-0.7-0.9c-0.4,0-0.8,0.3-0.9,0.7c0,0.1,0,0.1,0,0.2v4.1c0,0.4,0.3,0.8,0.7,0.9c0.4,0,0.8-0.3,0.9-0.7
	C147.5,83.9,147.5,83.8,147.5,83.8z"/>
<path class="st1" d="M154.1,77.7h2.2c1.3,0,2.1,0.8,2.1,2.3c0,1.1-0.4,1.8-1,2.1l1.1,3.6H157l-0.9-3.3h-0.6v3.3h-1.4L154.1,77.7z
	 M156.2,81.4c0.5,0,0.8-0.4,0.8-1.3s-0.2-1.3-0.8-1.3h-0.6v2.5H156.2z"/>
<path class="st1" d="M163.6,77.7h1.4v8h-1.4L163.6,77.7z"/>
<path class="st1" d="M170.1,83.6h1.3c0.1,0.6,0.2,1.1,0.8,1.1s0.7-0.4,0.7-0.8c-0.1-0.5-0.3-1-0.7-1.3l-0.8-0.8
	c-0.7-0.5-1.1-1.3-1.1-2.2c-0.1-1,0.7-1.9,1.8-2c0.1,0,0.1,0,0.2,0c1,0,1.9,0.5,1.9,2.2h-1.2c-0.1-0.6-0.2-1.1-0.7-1.1
	s-0.6,0.3-0.6,0.8s0.4,0.9,0.8,1.3l0.7,0.8c0.7,0.6,1.1,1.4,1.1,2.3c0,1.1-0.8,2-1.9,2.1c0,0,0,0-0.1,0c-1.1,0-2.1-0.8-2.1-2
	C170,83.8,170,83.7,170.1,83.6z"/>
<path class="st1" d="M180.3,78.9h-1.5v-1.2h4.4v1.2h-1.5v6.8h-1.4L180.3,78.9z"/>
<path class="st1" d="M189,77.7h2l1.6,8h-1.5l-0.4-2h-1.6l-0.4,2h-1.3L189,77.7z M190.5,82.7l-0.6-3.3l0,0l-0.6,3.3H190.5z"/>
</svg>
